%TF.GenerationSoftware,KiCad,Pcbnew,8.0.4*%
%TF.CreationDate,2025-03-12T23:32:50+01:00*%
%TF.ProjectId,Transistor Board V2,5472616e-7369-4737-946f-7220426f6172,rev?*%
%TF.SameCoordinates,Original*%
%TF.FileFunction,Soldermask,Top*%
%TF.FilePolarity,Negative*%
%FSLAX46Y46*%
G04 Gerber Fmt 4.6, Leading zero omitted, Abs format (unit mm)*
G04 Created by KiCad (PCBNEW 8.0.4) date 2025-03-12 23:32:50*
%MOMM*%
%LPD*%
G01*
G04 APERTURE LIST*
G04 Aperture macros list*
%AMRoundRect*
0 Rectangle with rounded corners*
0 $1 Rounding radius*
0 $2 $3 $4 $5 $6 $7 $8 $9 X,Y pos of 4 corners*
0 Add a 4 corners polygon primitive as box body*
4,1,4,$2,$3,$4,$5,$6,$7,$8,$9,$2,$3,0*
0 Add four circle primitives for the rounded corners*
1,1,$1+$1,$2,$3*
1,1,$1+$1,$4,$5*
1,1,$1+$1,$6,$7*
1,1,$1+$1,$8,$9*
0 Add four rect primitives between the rounded corners*
20,1,$1+$1,$2,$3,$4,$5,0*
20,1,$1+$1,$4,$5,$6,$7,0*
20,1,$1+$1,$6,$7,$8,$9,0*
20,1,$1+$1,$8,$9,$2,$3,0*%
G04 Aperture macros list end*
%ADD10C,3.200000*%
%ADD11R,2.000000X2.000000*%
%ADD12O,2.000000X2.000000*%
%ADD13C,5.000000*%
%ADD14C,1.600000*%
%ADD15R,2.800000X2.400000*%
%ADD16R,2.500000X1.800000*%
%ADD17R,1.600000X1.600000*%
%ADD18RoundRect,0.150000X0.587500X0.150000X-0.587500X0.150000X-0.587500X-0.150000X0.587500X-0.150000X0*%
%ADD19RoundRect,0.250000X-0.450000X0.262500X-0.450000X-0.262500X0.450000X-0.262500X0.450000X0.262500X0*%
G04 APERTURE END LIST*
D10*
%TO.C,REF\u002A\u002A*%
X154250000Y-98974000D03*
%TD*%
%TO.C,REF\u002A\u002A*%
X154250000Y-122500000D03*
%TD*%
%TO.C,REF\u002A\u002A*%
X243750000Y-122500000D03*
%TD*%
D11*
%TO.C,D2*%
X249000000Y-100079999D03*
D12*
X249000000Y-95000000D03*
%TD*%
D13*
%TO.C,J14*%
X254531000Y-93828532D03*
X254531000Y-101828532D03*
%TD*%
D14*
%TO.C,J9*%
X220000000Y-95000000D03*
X220000000Y-99500000D03*
D15*
X225550000Y-95000000D03*
X225550000Y-101100000D03*
X214450000Y-95000000D03*
X214450000Y-101100000D03*
%TD*%
%TO.C,J8*%
X256756000Y-128859000D03*
X256756000Y-134959000D03*
X245656000Y-128859000D03*
X245656000Y-134959000D03*
D14*
X251206000Y-130459000D03*
X251206000Y-134959001D03*
%TD*%
D15*
%TO.C,J7*%
X241834568Y-128859000D03*
X241834568Y-134959000D03*
X230734568Y-128859000D03*
X230734568Y-134959000D03*
D14*
X236284568Y-130459000D03*
X236284568Y-134959001D03*
%TD*%
D15*
%TO.C,J6*%
X226913140Y-128859000D03*
X226913140Y-134959000D03*
X215813140Y-128859000D03*
X215813140Y-134959000D03*
D14*
X221363140Y-130459000D03*
X221363140Y-134959001D03*
%TD*%
D15*
%TO.C,J5*%
X211991712Y-128859000D03*
X211991712Y-134959000D03*
X200891712Y-128859000D03*
X200891712Y-134959000D03*
D14*
X206441712Y-130459000D03*
X206441712Y-134959001D03*
%TD*%
D15*
%TO.C,J4*%
X197070284Y-128859000D03*
X197070284Y-134959000D03*
X185970284Y-128859000D03*
X185970284Y-134959000D03*
D14*
X191520284Y-130459000D03*
X191520284Y-134959001D03*
%TD*%
D15*
%TO.C,J3*%
X182148856Y-128859000D03*
X182148856Y-134959000D03*
X171048856Y-128859000D03*
X171048856Y-134959000D03*
D14*
X176598856Y-130459000D03*
X176598856Y-134959001D03*
%TD*%
D15*
%TO.C,J1*%
X167227428Y-128859000D03*
X167227428Y-134959000D03*
X156127428Y-128859000D03*
X156127428Y-134959000D03*
D14*
X161677428Y-130459000D03*
X161677428Y-134959001D03*
%TD*%
D16*
%TO.C,D8*%
X174598856Y-123000000D03*
X178598856Y-123000000D03*
%TD*%
D14*
%TO.C,U1*%
X140340000Y-91354000D03*
X142880000Y-91354000D03*
X145420000Y-91354000D03*
X147960000Y-91354000D03*
X150500000Y-91354000D03*
X153040000Y-91354000D03*
X155580000Y-91354000D03*
X158120000Y-91354000D03*
X160660000Y-91354000D03*
X163200000Y-91354000D03*
X165740000Y-91354000D03*
X168280000Y-91354000D03*
X170820000Y-91354000D03*
X173360000Y-91354000D03*
X175900000Y-91354000D03*
X178440000Y-91354000D03*
X180980000Y-91354000D03*
X183520000Y-91354000D03*
X186060000Y-91354000D03*
X188600000Y-91354000D03*
X191140000Y-91354000D03*
X193680000Y-91354000D03*
X196220000Y-91354000D03*
X198760000Y-91354000D03*
X198760000Y-106594000D03*
X196220000Y-106594000D03*
X193680000Y-106594000D03*
X191140000Y-106594000D03*
X188600000Y-106594000D03*
X186060000Y-106594000D03*
X183520000Y-106594000D03*
X180980000Y-106594000D03*
X178440000Y-106594000D03*
X175900000Y-106594000D03*
X173360000Y-106594000D03*
X170820000Y-106594000D03*
X168280000Y-106594000D03*
X165740000Y-106594000D03*
X163200000Y-106594000D03*
X160660000Y-106594000D03*
X158120000Y-106594000D03*
X155580000Y-106594000D03*
X153040000Y-106594000D03*
X150500000Y-106594000D03*
X147960000Y-106594000D03*
X145420000Y-106594000D03*
X142880000Y-106594000D03*
D17*
X140340000Y-106594000D03*
%TD*%
D16*
%TO.C,D7*%
X159677428Y-123000000D03*
X163677428Y-123000000D03*
%TD*%
D18*
%TO.C,Q10*%
X218845640Y-118041500D03*
X220720640Y-117091500D03*
X220720640Y-118991500D03*
%TD*%
D16*
%TO.C,D6*%
X144756000Y-123000000D03*
X148756000Y-123000000D03*
%TD*%
D18*
%TO.C,Q11*%
X233767068Y-118041500D03*
X235642068Y-117091500D03*
X235642068Y-118991500D03*
%TD*%
D19*
%TO.C,R7*%
X179148856Y-118934000D03*
X179148856Y-117109000D03*
%TD*%
%TO.C,R9*%
X208991712Y-118934000D03*
X208991712Y-117109000D03*
%TD*%
D16*
%TO.C,D11*%
X219363140Y-123000000D03*
X223363140Y-123000000D03*
%TD*%
D19*
%TO.C,R8*%
X194070284Y-118934000D03*
X194070284Y-117109000D03*
%TD*%
D16*
%TO.C,D12*%
X234284568Y-123000000D03*
X238284568Y-123000000D03*
%TD*%
%TO.C,D13*%
X253206000Y-123000000D03*
X249206000Y-123000000D03*
%TD*%
D18*
%TO.C,Q12*%
X250563500Y-118991500D03*
X250563500Y-117091500D03*
X248688500Y-118041500D03*
%TD*%
%TO.C,Q5*%
X144238500Y-118041500D03*
X146113500Y-117091500D03*
X146113500Y-118991500D03*
%TD*%
D19*
%TO.C,R6*%
X164227428Y-118934000D03*
X164227428Y-117109000D03*
%TD*%
D18*
%TO.C,Q7*%
X174081356Y-118041500D03*
X175956356Y-117091500D03*
X175956356Y-118991500D03*
%TD*%
D15*
%TO.C,J15*%
X152306000Y-128859000D03*
X152306000Y-134959000D03*
X141206000Y-128859000D03*
X141206000Y-134959000D03*
D14*
X146756000Y-130459000D03*
X146756000Y-134959001D03*
%TD*%
D19*
%TO.C,R5*%
X149306000Y-118934000D03*
X149306000Y-117109000D03*
%TD*%
%TO.C,R11*%
X238834568Y-118934000D03*
X238834568Y-117109000D03*
%TD*%
%TO.C,R10*%
X223913140Y-118934000D03*
X223913140Y-117109000D03*
%TD*%
D18*
%TO.C,Q8*%
X189002784Y-118041500D03*
X190877784Y-117091500D03*
X190877784Y-118991500D03*
%TD*%
%TO.C,Q6*%
X159159928Y-118041500D03*
X161034928Y-117091500D03*
X161034928Y-118991500D03*
%TD*%
D16*
%TO.C,D9*%
X189520284Y-123000000D03*
X193520284Y-123000000D03*
%TD*%
%TO.C,D10*%
X204441712Y-123000000D03*
X208441712Y-123000000D03*
%TD*%
D19*
%TO.C,R12*%
X253756000Y-117109000D03*
X253756000Y-118934000D03*
%TD*%
D18*
%TO.C,Q9*%
X203924212Y-118041500D03*
X205799212Y-117091500D03*
X205799212Y-118991500D03*
%TD*%
M02*
