M48
; DRILL file {KiCad 8.0.4} date 2025-03-12T23:32:50+0100
; FORMAT={-:-/ absolute / inch / decimal}
; #@! TF.CreationDate,2025-03-12T23:32:50+01:00
; #@! TF.GenerationSoftware,Kicad,Pcbnew,8.0.4
; #@! TF.FileFunction,Plated,1,2,PTH
FMAT,2
INCH
; #@! TA.AperFunction,Plated,PTH,ViaDrill
T1C0.0157
; #@! TA.AperFunction,Plated,PTH,ComponentDrill
T2C0.0433
; #@! TA.AperFunction,Plated,PTH,ComponentDrill
T3C0.1181
%
G90
G05
T1
X5.7528Y-4.5531
X5.9433Y-4.6831
X6.339Y-4.5524
X6.5307Y-4.6823
X6.7882Y-4.6248
X7.1173Y-4.6835
X7.5146Y-4.5531
X7.7059Y-4.6823
X8.1024Y-4.5531
X8.2776Y-4.3701
X8.2929Y-4.6827
X8.3071Y-4.311
X8.3366Y-4.252
X8.4147Y-3.7618
X8.4149Y-3.7185
X8.471Y-3.7618
X8.4712Y-3.7185
X8.6898Y-4.5528
X8.815Y-4.6102
X8.8803Y-4.6823
X9.2764Y-4.5528
X9.4016Y-4.6102
X9.4685Y-4.6823
X9.8638Y-4.5524
X9.9904Y-4.6106
X10.0559Y-4.6815
T2
X5.5252Y-3.5966
X5.5252Y-4.1966
X5.6252Y-3.5966
X5.6252Y-4.1966
X5.7252Y-3.5966
X5.7252Y-4.1966
X5.8252Y-3.5966
X5.8252Y-4.1966
X5.9252Y-3.5966
X5.9252Y-4.1966
X6.0252Y-3.5966
X6.0252Y-4.1966
X6.1252Y-3.5966
X6.1252Y-4.1966
X6.2252Y-3.5966
X6.2252Y-4.1966
X6.3252Y-3.5966
X6.3252Y-4.1966
X6.4252Y-3.5966
X6.4252Y-4.1966
X6.5252Y-3.5966
X6.5252Y-4.1966
X6.6252Y-3.5966
X6.6252Y-4.1966
X6.7252Y-3.5966
X6.7252Y-4.1966
X6.8252Y-3.5966
X6.8252Y-4.1966
X6.9252Y-3.5966
X6.9252Y-4.1966
X7.0252Y-3.5966
X7.0252Y-4.1966
X7.1252Y-3.5966
X7.1252Y-4.1966
X7.2252Y-3.5966
X7.2252Y-4.1966
X7.3252Y-3.5966
X7.3252Y-4.1966
X7.4252Y-3.5966
X7.4252Y-4.1966
X7.5252Y-3.5966
X7.5252Y-4.1966
X7.6252Y-3.5966
X7.6252Y-4.1966
X7.7252Y-3.5966
X7.7252Y-4.1966
X7.8252Y-3.5966
X7.8252Y-4.1966
X9.8031Y-3.7402
X9.8031Y-3.9402
T3
X10.0209Y-3.694
X10.0209Y-4.009
M30
