M48
; DRILL file {KiCad 8.0.4} date 2025-03-12T23:32:50+0100
; FORMAT={-:-/ absolute / inch / decimal}
; #@! TF.CreationDate,2025-03-12T23:32:50+01:00
; #@! TF.GenerationSoftware,Kicad,Pcbnew,8.0.4
; #@! TF.FileFunction,NonPlated,1,2,NPTH
FMAT,2
INCH
; #@! TA.AperFunction,NonPlated,NPTH,ComponentDrill
T1C0.0630
; #@! TA.AperFunction,NonPlated,NPTH,ComponentDrill
T2C0.1260
%
G90
G05
T1
X5.7778Y-5.1362
X5.7778Y-5.3133
X6.3653Y-5.1362
X6.3653Y-5.3133
X6.9527Y-5.1362
X6.9527Y-5.3133
X7.5402Y-5.1362
X7.5402Y-5.3133
X8.1276Y-5.1362
X8.1276Y-5.3133
X8.6614Y-3.7402
X8.6614Y-3.9173
X8.7151Y-5.1362
X8.7151Y-5.3133
X9.3025Y-5.1362
X9.3025Y-5.3133
X9.89Y-5.1362
X9.89Y-5.3133
T2
X6.0728Y-3.8966
X6.0728Y-4.8228
X9.5965Y-4.8228
M30
