%TF.GenerationSoftware,KiCad,Pcbnew,8.0.4*%
%TF.CreationDate,2025-03-12T23:32:50+01:00*%
%TF.ProjectId,Transistor Board V2,5472616e-7369-4737-946f-7220426f6172,rev?*%
%TF.SameCoordinates,Original*%
%TF.FileFunction,Copper,L2,Bot*%
%TF.FilePolarity,Positive*%
%FSLAX46Y46*%
G04 Gerber Fmt 4.6, Leading zero omitted, Abs format (unit mm)*
G04 Created by KiCad (PCBNEW 8.0.4) date 2025-03-12 23:32:50*
%MOMM*%
%LPD*%
G01*
G04 APERTURE LIST*
%TA.AperFunction,ComponentPad*%
%ADD10R,2.000000X2.000000*%
%TD*%
%TA.AperFunction,ComponentPad*%
%ADD11O,2.000000X2.000000*%
%TD*%
%TA.AperFunction,ComponentPad*%
%ADD12C,5.000000*%
%TD*%
%TA.AperFunction,ComponentPad*%
%ADD13C,1.600000*%
%TD*%
%TA.AperFunction,ComponentPad*%
%ADD14R,1.600000X1.600000*%
%TD*%
%TA.AperFunction,ViaPad*%
%ADD15C,0.800000*%
%TD*%
%TA.AperFunction,Conductor*%
%ADD16C,0.500000*%
%TD*%
%TA.AperFunction,Conductor*%
%ADD17C,5.000000*%
%TD*%
G04 APERTURE END LIST*
D10*
%TO.P,D2,1,K*%
%TO.N,9V+*%
X249000000Y-100079999D03*
D11*
%TO.P,D2,2,A*%
%TO.N,Net-(D2-A)*%
X249000000Y-95000000D03*
%TD*%
D12*
%TO.P,J14,1,Pin_1*%
%TO.N,Net-(D2-A)*%
X254531000Y-93828532D03*
%TO.P,J14,2,Pin_2*%
%TO.N,GND*%
X254531000Y-101828532D03*
%TD*%
D13*
%TO.P,U1,48,VIN*%
%TO.N,unconnected-(U1-VIN-Pad48)*%
X140340000Y-91354000D03*
%TO.P,U1,47,GND*%
%TO.N,unconnected-(U1-GND-Pad47)*%
X142880000Y-91354000D03*
%TO.P,U1,46,3V3*%
%TO.N,unconnected-(U1-3V3-Pad46)*%
X145420000Y-91354000D03*
%TO.P,U1,45,23_A9_CRX1_MCLK1*%
%TO.N,unconnected-(U1-23_A9_CRX1_MCLK1-Pad45)*%
X147960000Y-91354000D03*
%TO.P,U1,44,22_A8_CTX1*%
%TO.N,unconnected-(U1-22_A8_CTX1-Pad44)*%
X150500000Y-91354000D03*
%TO.P,U1,43,21_A7_RX5_BCLK1*%
%TO.N,unconnected-(U1-21_A7_RX5_BCLK1-Pad43)*%
X153040000Y-91354000D03*
%TO.P,U1,42,20_A6_TX5_LRCLK1*%
%TO.N,unconnected-(U1-20_A6_TX5_LRCLK1-Pad42)*%
X155580000Y-91354000D03*
%TO.P,U1,41,19_A5_SCL*%
%TO.N,unconnected-(U1-19_A5_SCL-Pad41)*%
X158120000Y-91354000D03*
%TO.P,U1,40,18_A4_SDA*%
%TO.N,unconnected-(U1-18_A4_SDA-Pad40)*%
X160660000Y-91354000D03*
%TO.P,U1,39,17_A3_TX4_SDA1*%
%TO.N,unconnected-(U1-17_A3_TX4_SDA1-Pad39)*%
X163200000Y-91354000D03*
%TO.P,U1,38,16_A2_RX4_SCL1*%
%TO.N,unconnected-(U1-16_A2_RX4_SCL1-Pad38)*%
X165740000Y-91354000D03*
%TO.P,U1,37,15_A1_RX3_SPDIF_IN*%
%TO.N,unconnected-(U1-15_A1_RX3_SPDIF_IN-Pad37)*%
X168280000Y-91354000D03*
%TO.P,U1,36,14_A0_TX3_SPDIF_OUT*%
%TO.N,unconnected-(U1-14_A0_TX3_SPDIF_OUT-Pad36)*%
X170820000Y-91354000D03*
%TO.P,U1,35,13_SCK_LED*%
%TO.N,unconnected-(U1-13_SCK_LED-Pad35)*%
X173360000Y-91354000D03*
%TO.P,U1,34,GND*%
%TO.N,unconnected-(U1-GND-Pad34)*%
X175900000Y-91354000D03*
%TO.P,U1,33,41_A17*%
%TO.N,unconnected-(U1-41_A17-Pad33)*%
X178440000Y-91354000D03*
%TO.P,U1,32,40_A16*%
%TO.N,unconnected-(U1-40_A16-Pad32)*%
X180980000Y-91354000D03*
%TO.P,U1,31,39_MISO1_OUT1A*%
%TO.N,unconnected-(U1-39_MISO1_OUT1A-Pad31)*%
X183520000Y-91354000D03*
%TO.P,U1,30,38_CS1_IN1*%
%TO.N,unconnected-(U1-38_CS1_IN1-Pad30)*%
X186060000Y-91354000D03*
%TO.P,U1,29,37_CS*%
%TO.N,unconnected-(U1-37_CS-Pad29)*%
X188600000Y-91354000D03*
%TO.P,U1,28,36_CS*%
%TO.N,unconnected-(U1-36_CS-Pad28)*%
X191140000Y-91354000D03*
%TO.P,U1,27,35_TX8*%
%TO.N,unconnected-(U1-35_TX8-Pad27)*%
X193680000Y-91354000D03*
%TO.P,U1,26,34_RX8*%
%TO.N,unconnected-(U1-34_RX8-Pad26)*%
X196220000Y-91354000D03*
%TO.P,U1,25,33_MCLK2*%
%TO.N,unconnected-(U1-33_MCLK2-Pad25)*%
X198760000Y-91354000D03*
%TO.P,U1,24,32_OUT1B*%
%TO.N,unconnected-(U1-32_OUT1B-Pad24)*%
X198760000Y-106594000D03*
%TO.P,U1,23,31_CTX3*%
%TO.N,unconnected-(U1-31_CTX3-Pad23)*%
X196220000Y-106594000D03*
%TO.P,U1,22,30_CRX3*%
%TO.N,unconnected-(U1-30_CRX3-Pad22)*%
X193680000Y-106594000D03*
%TO.P,U1,21,29_TX7*%
%TO.N,unconnected-(U1-29_TX7-Pad21)*%
X191140000Y-106594000D03*
%TO.P,U1,20,28_RX7*%
%TO.N,unconnected-(U1-28_RX7-Pad20)*%
X188600000Y-106594000D03*
%TO.P,U1,19,27_A13_SCK1*%
%TO.N,unconnected-(U1-27_A13_SCK1-Pad19)*%
X186060000Y-106594000D03*
%TO.P,U1,18,26_A12_MOSI1*%
%TO.N,unconnected-(U1-26_A12_MOSI1-Pad18)*%
X183520000Y-106594000D03*
%TO.P,U1,17,25_A11_RX6_SDA2*%
%TO.N,unconnected-(U1-25_A11_RX6_SDA2-Pad17)*%
X180980000Y-106594000D03*
%TO.P,U1,16,24_A10_TX6_SCL2*%
%TO.N,unconnected-(U1-24_A10_TX6_SCL2-Pad16)*%
X178440000Y-106594000D03*
%TO.P,U1,15,3V3*%
%TO.N,unconnected-(U1-3V3-Pad15)*%
X175900000Y-106594000D03*
%TO.P,U1,14,12_MISO_MQSL*%
%TO.N,pwm_9*%
X173360000Y-106594000D03*
%TO.P,U1,13,11_MOSI_CTX1*%
%TO.N,pwm_8*%
X170820000Y-106594000D03*
%TO.P,U1,12,10_CS_MQSR*%
%TO.N,pwm_7*%
X168280000Y-106594000D03*
%TO.P,U1,11,9_OUT1C*%
%TO.N,pwm_6*%
X165740000Y-106594000D03*
%TO.P,U1,10,8_TX2_IN1*%
%TO.N,pwm_5*%
X163200000Y-106594000D03*
%TO.P,U1,9,7_RX2_OUT1A*%
%TO.N,pwm_4*%
X160660000Y-106594000D03*
%TO.P,U1,8,6_OUT1D*%
%TO.N,pwm_3*%
X158120000Y-106594000D03*
%TO.P,U1,7,5_IN2*%
%TO.N,pwm_2*%
X155580000Y-106594000D03*
%TO.P,U1,6,4_BCLK2*%
%TO.N,pwm_1*%
X153040000Y-106594000D03*
%TO.P,U1,5,3_LRCLK2*%
%TO.N,unconnected-(U1-3_LRCLK2-Pad5)*%
X150500000Y-106594000D03*
%TO.P,U1,4,2_OUT2*%
%TO.N,unconnected-(U1-2_OUT2-Pad4)*%
X147960000Y-106594000D03*
%TO.P,U1,3,1_TX1_CTX2_MISO1*%
%TO.N,unconnected-(U1-1_TX1_CTX2_MISO1-Pad3)*%
X145420000Y-106594000D03*
%TO.P,U1,2,0_RX1_CRX2_CS1*%
%TO.N,unconnected-(U1-0_RX1_CRX2_CS1-Pad2)*%
X142880000Y-106594000D03*
D14*
%TO.P,U1,1,GND*%
%TO.N,GND*%
X140340000Y-106594000D03*
%TD*%
D15*
%TO.N,GND*%
X215162500Y-95550000D03*
X213732500Y-95550000D03*
X215167500Y-94450000D03*
X213737500Y-94450000D03*
X146120000Y-115650000D03*
X161010000Y-115630000D03*
X172420000Y-117470000D03*
X190870000Y-115650000D03*
X205800000Y-115650000D03*
X220720000Y-115640000D03*
X235620000Y-115640000D03*
X250540000Y-115630000D03*
X150960000Y-118950000D03*
X165880000Y-118930000D03*
X180780000Y-118960000D03*
X195730000Y-118930000D03*
X210640000Y-118940000D03*
X225560000Y-118930000D03*
X240500000Y-118930000D03*
X255420000Y-118910000D03*
%TO.N,pwm_8*%
X253756000Y-117109000D03*
%TO.N,pwm_7*%
X238800000Y-117100000D03*
%TO.N,pwm_6*%
X223900000Y-117100000D03*
%TO.N,pwm_8*%
X211750000Y-108000000D03*
%TO.N,pwm_7*%
X211000000Y-109500000D03*
%TO.N,pwm_6*%
X210250000Y-111000000D03*
%TD*%
D16*
%TO.N,pwm_6*%
X210250000Y-111000000D02*
X217804140Y-111000000D01*
X217804140Y-111000000D02*
X223900000Y-117095860D01*
%TO.N,pwm_7*%
X231225568Y-109500000D02*
X238834568Y-117109000D01*
X211000000Y-109500000D02*
X231225568Y-109500000D01*
%TO.N,pwm_8*%
X211750000Y-108000000D02*
X244647000Y-108000000D01*
X244647000Y-108000000D02*
X253756000Y-117109000D01*
D17*
%TO.N,Net-(D2-A)*%
X249000000Y-95000000D02*
X253359532Y-95000000D01*
X253359532Y-95000000D02*
X254531000Y-93828532D01*
%TD*%
%TA.AperFunction,Conductor*%
%TO.N,GND*%
G36*
X142589665Y-90178407D02*
G01*
X142625629Y-90227907D01*
X142625629Y-90289093D01*
X142589665Y-90338593D01*
X142560212Y-90353236D01*
X142529411Y-90362579D01*
X142476045Y-90378768D01*
X142293547Y-90476316D01*
X142133595Y-90607585D01*
X142133585Y-90607595D01*
X142002316Y-90767547D01*
X141904768Y-90950045D01*
X141844699Y-91148065D01*
X141844698Y-91148070D01*
X141824417Y-91353996D01*
X141824417Y-91354003D01*
X141844698Y-91559929D01*
X141844699Y-91559934D01*
X141904768Y-91757954D01*
X142002316Y-91940452D01*
X142133585Y-92100404D01*
X142133590Y-92100410D01*
X142133595Y-92100414D01*
X142293547Y-92231683D01*
X142293548Y-92231683D01*
X142293550Y-92231685D01*
X142476046Y-92329232D01*
X142613997Y-92371078D01*
X142674065Y-92389300D01*
X142674070Y-92389301D01*
X142879997Y-92409583D01*
X142880000Y-92409583D01*
X142880003Y-92409583D01*
X143085929Y-92389301D01*
X143085934Y-92389300D01*
X143283954Y-92329232D01*
X143466450Y-92231685D01*
X143626410Y-92100410D01*
X143757685Y-91940450D01*
X143855232Y-91757954D01*
X143915300Y-91559934D01*
X143915301Y-91559929D01*
X143935583Y-91354003D01*
X143935583Y-91353996D01*
X143915301Y-91148070D01*
X143915300Y-91148065D01*
X143866369Y-90986761D01*
X143855232Y-90950046D01*
X143757685Y-90767550D01*
X143626410Y-90607590D01*
X143626404Y-90607585D01*
X143466452Y-90476316D01*
X143283954Y-90378768D01*
X143199787Y-90353236D01*
X143149591Y-90318252D01*
X143129545Y-90260444D01*
X143147306Y-90201893D01*
X143196090Y-90164964D01*
X143228526Y-90159500D01*
X145071474Y-90159500D01*
X145129665Y-90178407D01*
X145165629Y-90227907D01*
X145165629Y-90289093D01*
X145129665Y-90338593D01*
X145100212Y-90353236D01*
X145069411Y-90362579D01*
X145016045Y-90378768D01*
X144833547Y-90476316D01*
X144673595Y-90607585D01*
X144673585Y-90607595D01*
X144542316Y-90767547D01*
X144444768Y-90950045D01*
X144384699Y-91148065D01*
X144384698Y-91148070D01*
X144364417Y-91353996D01*
X144364417Y-91354003D01*
X144384698Y-91559929D01*
X144384699Y-91559934D01*
X144444768Y-91757954D01*
X144542316Y-91940452D01*
X144673585Y-92100404D01*
X144673590Y-92100410D01*
X144673595Y-92100414D01*
X144833547Y-92231683D01*
X144833548Y-92231683D01*
X144833550Y-92231685D01*
X145016046Y-92329232D01*
X145153997Y-92371078D01*
X145214065Y-92389300D01*
X145214070Y-92389301D01*
X145419997Y-92409583D01*
X145420000Y-92409583D01*
X145420003Y-92409583D01*
X145625929Y-92389301D01*
X145625934Y-92389300D01*
X145823954Y-92329232D01*
X146006450Y-92231685D01*
X146166410Y-92100410D01*
X146297685Y-91940450D01*
X146395232Y-91757954D01*
X146455300Y-91559934D01*
X146455301Y-91559929D01*
X146475583Y-91354003D01*
X146475583Y-91353996D01*
X146455301Y-91148070D01*
X146455300Y-91148065D01*
X146406369Y-90986761D01*
X146395232Y-90950046D01*
X146297685Y-90767550D01*
X146166410Y-90607590D01*
X146166404Y-90607585D01*
X146006452Y-90476316D01*
X145823954Y-90378768D01*
X145739787Y-90353236D01*
X145689591Y-90318252D01*
X145669545Y-90260444D01*
X145687306Y-90201893D01*
X145736090Y-90164964D01*
X145768526Y-90159500D01*
X147611474Y-90159500D01*
X147669665Y-90178407D01*
X147705629Y-90227907D01*
X147705629Y-90289093D01*
X147669665Y-90338593D01*
X147640212Y-90353236D01*
X147609411Y-90362579D01*
X147556045Y-90378768D01*
X147373547Y-90476316D01*
X147213595Y-90607585D01*
X147213585Y-90607595D01*
X147082316Y-90767547D01*
X146984768Y-90950045D01*
X146924699Y-91148065D01*
X146924698Y-91148070D01*
X146904417Y-91353996D01*
X146904417Y-91354003D01*
X146924698Y-91559929D01*
X146924699Y-91559934D01*
X146984768Y-91757954D01*
X147082316Y-91940452D01*
X147213585Y-92100404D01*
X147213590Y-92100410D01*
X147213595Y-92100414D01*
X147373547Y-92231683D01*
X147373548Y-92231683D01*
X147373550Y-92231685D01*
X147556046Y-92329232D01*
X147693997Y-92371078D01*
X147754065Y-92389300D01*
X147754070Y-92389301D01*
X147959997Y-92409583D01*
X147960000Y-92409583D01*
X147960003Y-92409583D01*
X148165929Y-92389301D01*
X148165934Y-92389300D01*
X148363954Y-92329232D01*
X148546450Y-92231685D01*
X148706410Y-92100410D01*
X148837685Y-91940450D01*
X148935232Y-91757954D01*
X148995300Y-91559934D01*
X148995301Y-91559929D01*
X149015583Y-91354003D01*
X149015583Y-91353996D01*
X148995301Y-91148070D01*
X148995300Y-91148065D01*
X148946369Y-90986761D01*
X148935232Y-90950046D01*
X148837685Y-90767550D01*
X148706410Y-90607590D01*
X148706404Y-90607585D01*
X148546452Y-90476316D01*
X148363954Y-90378768D01*
X148279787Y-90353236D01*
X148229591Y-90318252D01*
X148209545Y-90260444D01*
X148227306Y-90201893D01*
X148276090Y-90164964D01*
X148308526Y-90159500D01*
X150151474Y-90159500D01*
X150209665Y-90178407D01*
X150245629Y-90227907D01*
X150245629Y-90289093D01*
X150209665Y-90338593D01*
X150180212Y-90353236D01*
X150149411Y-90362579D01*
X150096045Y-90378768D01*
X149913547Y-90476316D01*
X149753595Y-90607585D01*
X149753585Y-90607595D01*
X149622316Y-90767547D01*
X149524768Y-90950045D01*
X149464699Y-91148065D01*
X149464698Y-91148070D01*
X149444417Y-91353996D01*
X149444417Y-91354003D01*
X149464698Y-91559929D01*
X149464699Y-91559934D01*
X149524768Y-91757954D01*
X149622316Y-91940452D01*
X149753585Y-92100404D01*
X149753590Y-92100410D01*
X149753595Y-92100414D01*
X149913547Y-92231683D01*
X149913548Y-92231683D01*
X149913550Y-92231685D01*
X150096046Y-92329232D01*
X150233997Y-92371078D01*
X150294065Y-92389300D01*
X150294070Y-92389301D01*
X150499997Y-92409583D01*
X150500000Y-92409583D01*
X150500003Y-92409583D01*
X150705929Y-92389301D01*
X150705934Y-92389300D01*
X150903954Y-92329232D01*
X151086450Y-92231685D01*
X151246410Y-92100410D01*
X151377685Y-91940450D01*
X151475232Y-91757954D01*
X151535300Y-91559934D01*
X151535301Y-91559929D01*
X151555583Y-91354003D01*
X151555583Y-91353996D01*
X151535301Y-91148070D01*
X151535300Y-91148065D01*
X151486369Y-90986761D01*
X151475232Y-90950046D01*
X151377685Y-90767550D01*
X151246410Y-90607590D01*
X151246404Y-90607585D01*
X151086452Y-90476316D01*
X150903954Y-90378768D01*
X150819787Y-90353236D01*
X150769591Y-90318252D01*
X150749545Y-90260444D01*
X150767306Y-90201893D01*
X150816090Y-90164964D01*
X150848526Y-90159500D01*
X152691474Y-90159500D01*
X152749665Y-90178407D01*
X152785629Y-90227907D01*
X152785629Y-90289093D01*
X152749665Y-90338593D01*
X152720212Y-90353236D01*
X152689411Y-90362579D01*
X152636045Y-90378768D01*
X152453547Y-90476316D01*
X152293595Y-90607585D01*
X152293585Y-90607595D01*
X152162316Y-90767547D01*
X152064768Y-90950045D01*
X152004699Y-91148065D01*
X152004698Y-91148070D01*
X151984417Y-91353996D01*
X151984417Y-91354003D01*
X152004698Y-91559929D01*
X152004699Y-91559934D01*
X152064768Y-91757954D01*
X152162316Y-91940452D01*
X152293585Y-92100404D01*
X152293590Y-92100410D01*
X152293595Y-92100414D01*
X152453547Y-92231683D01*
X152453548Y-92231683D01*
X152453550Y-92231685D01*
X152636046Y-92329232D01*
X152773997Y-92371078D01*
X152834065Y-92389300D01*
X152834070Y-92389301D01*
X153039997Y-92409583D01*
X153040000Y-92409583D01*
X153040003Y-92409583D01*
X153245929Y-92389301D01*
X153245934Y-92389300D01*
X153443954Y-92329232D01*
X153626450Y-92231685D01*
X153786410Y-92100410D01*
X153917685Y-91940450D01*
X154015232Y-91757954D01*
X154075300Y-91559934D01*
X154075301Y-91559929D01*
X154095583Y-91354003D01*
X154095583Y-91353996D01*
X154075301Y-91148070D01*
X154075300Y-91148065D01*
X154026369Y-90986761D01*
X154015232Y-90950046D01*
X153917685Y-90767550D01*
X153786410Y-90607590D01*
X153786404Y-90607585D01*
X153626452Y-90476316D01*
X153443954Y-90378768D01*
X153359787Y-90353236D01*
X153309591Y-90318252D01*
X153289545Y-90260444D01*
X153307306Y-90201893D01*
X153356090Y-90164964D01*
X153388526Y-90159500D01*
X155231474Y-90159500D01*
X155289665Y-90178407D01*
X155325629Y-90227907D01*
X155325629Y-90289093D01*
X155289665Y-90338593D01*
X155260212Y-90353236D01*
X155229411Y-90362579D01*
X155176045Y-90378768D01*
X154993547Y-90476316D01*
X154833595Y-90607585D01*
X154833585Y-90607595D01*
X154702316Y-90767547D01*
X154604768Y-90950045D01*
X154544699Y-91148065D01*
X154544698Y-91148070D01*
X154524417Y-91353996D01*
X154524417Y-91354003D01*
X154544698Y-91559929D01*
X154544699Y-91559934D01*
X154604768Y-91757954D01*
X154702316Y-91940452D01*
X154833585Y-92100404D01*
X154833590Y-92100410D01*
X154833595Y-92100414D01*
X154993547Y-92231683D01*
X154993548Y-92231683D01*
X154993550Y-92231685D01*
X155176046Y-92329232D01*
X155313997Y-92371078D01*
X155374065Y-92389300D01*
X155374070Y-92389301D01*
X155579997Y-92409583D01*
X155580000Y-92409583D01*
X155580003Y-92409583D01*
X155785929Y-92389301D01*
X155785934Y-92389300D01*
X155983954Y-92329232D01*
X156166450Y-92231685D01*
X156326410Y-92100410D01*
X156457685Y-91940450D01*
X156555232Y-91757954D01*
X156615300Y-91559934D01*
X156615301Y-91559929D01*
X156635583Y-91354003D01*
X156635583Y-91353996D01*
X156615301Y-91148070D01*
X156615300Y-91148065D01*
X156566369Y-90986761D01*
X156555232Y-90950046D01*
X156457685Y-90767550D01*
X156326410Y-90607590D01*
X156326404Y-90607585D01*
X156166452Y-90476316D01*
X155983954Y-90378768D01*
X155899787Y-90353236D01*
X155849591Y-90318252D01*
X155829545Y-90260444D01*
X155847306Y-90201893D01*
X155896090Y-90164964D01*
X155928526Y-90159500D01*
X157771474Y-90159500D01*
X157829665Y-90178407D01*
X157865629Y-90227907D01*
X157865629Y-90289093D01*
X157829665Y-90338593D01*
X157800212Y-90353236D01*
X157769411Y-90362579D01*
X157716045Y-90378768D01*
X157533547Y-90476316D01*
X157373595Y-90607585D01*
X157373585Y-90607595D01*
X157242316Y-90767547D01*
X157144768Y-90950045D01*
X157084699Y-91148065D01*
X157084698Y-91148070D01*
X157064417Y-91353996D01*
X157064417Y-91354003D01*
X157084698Y-91559929D01*
X157084699Y-91559934D01*
X157144768Y-91757954D01*
X157242316Y-91940452D01*
X157373585Y-92100404D01*
X157373590Y-92100410D01*
X157373595Y-92100414D01*
X157533547Y-92231683D01*
X157533548Y-92231683D01*
X157533550Y-92231685D01*
X157716046Y-92329232D01*
X157853997Y-92371078D01*
X157914065Y-92389300D01*
X157914070Y-92389301D01*
X158119997Y-92409583D01*
X158120000Y-92409583D01*
X158120003Y-92409583D01*
X158325929Y-92389301D01*
X158325934Y-92389300D01*
X158523954Y-92329232D01*
X158706450Y-92231685D01*
X158866410Y-92100410D01*
X158997685Y-91940450D01*
X159095232Y-91757954D01*
X159155300Y-91559934D01*
X159155301Y-91559929D01*
X159175583Y-91354003D01*
X159175583Y-91353996D01*
X159155301Y-91148070D01*
X159155300Y-91148065D01*
X159106369Y-90986761D01*
X159095232Y-90950046D01*
X158997685Y-90767550D01*
X158866410Y-90607590D01*
X158866404Y-90607585D01*
X158706452Y-90476316D01*
X158523954Y-90378768D01*
X158439787Y-90353236D01*
X158389591Y-90318252D01*
X158369545Y-90260444D01*
X158387306Y-90201893D01*
X158436090Y-90164964D01*
X158468526Y-90159500D01*
X160311474Y-90159500D01*
X160369665Y-90178407D01*
X160405629Y-90227907D01*
X160405629Y-90289093D01*
X160369665Y-90338593D01*
X160340212Y-90353236D01*
X160309411Y-90362579D01*
X160256045Y-90378768D01*
X160073547Y-90476316D01*
X159913595Y-90607585D01*
X159913585Y-90607595D01*
X159782316Y-90767547D01*
X159684768Y-90950045D01*
X159624699Y-91148065D01*
X159624698Y-91148070D01*
X159604417Y-91353996D01*
X159604417Y-91354003D01*
X159624698Y-91559929D01*
X159624699Y-91559934D01*
X159684768Y-91757954D01*
X159782316Y-91940452D01*
X159913585Y-92100404D01*
X159913590Y-92100410D01*
X159913595Y-92100414D01*
X160073547Y-92231683D01*
X160073548Y-92231683D01*
X160073550Y-92231685D01*
X160256046Y-92329232D01*
X160393997Y-92371078D01*
X160454065Y-92389300D01*
X160454070Y-92389301D01*
X160659997Y-92409583D01*
X160660000Y-92409583D01*
X160660003Y-92409583D01*
X160865929Y-92389301D01*
X160865934Y-92389300D01*
X161063954Y-92329232D01*
X161246450Y-92231685D01*
X161406410Y-92100410D01*
X161537685Y-91940450D01*
X161635232Y-91757954D01*
X161695300Y-91559934D01*
X161695301Y-91559929D01*
X161715583Y-91354003D01*
X161715583Y-91353996D01*
X161695301Y-91148070D01*
X161695300Y-91148065D01*
X161646369Y-90986761D01*
X161635232Y-90950046D01*
X161537685Y-90767550D01*
X161406410Y-90607590D01*
X161406404Y-90607585D01*
X161246452Y-90476316D01*
X161063954Y-90378768D01*
X160979787Y-90353236D01*
X160929591Y-90318252D01*
X160909545Y-90260444D01*
X160927306Y-90201893D01*
X160976090Y-90164964D01*
X161008526Y-90159500D01*
X162851474Y-90159500D01*
X162909665Y-90178407D01*
X162945629Y-90227907D01*
X162945629Y-90289093D01*
X162909665Y-90338593D01*
X162880212Y-90353236D01*
X162849411Y-90362579D01*
X162796045Y-90378768D01*
X162613547Y-90476316D01*
X162453595Y-90607585D01*
X162453585Y-90607595D01*
X162322316Y-90767547D01*
X162224768Y-90950045D01*
X162164699Y-91148065D01*
X162164698Y-91148070D01*
X162144417Y-91353996D01*
X162144417Y-91354003D01*
X162164698Y-91559929D01*
X162164699Y-91559934D01*
X162224768Y-91757954D01*
X162322316Y-91940452D01*
X162453585Y-92100404D01*
X162453590Y-92100410D01*
X162453595Y-92100414D01*
X162613547Y-92231683D01*
X162613548Y-92231683D01*
X162613550Y-92231685D01*
X162796046Y-92329232D01*
X162933997Y-92371078D01*
X162994065Y-92389300D01*
X162994070Y-92389301D01*
X163199997Y-92409583D01*
X163200000Y-92409583D01*
X163200003Y-92409583D01*
X163405929Y-92389301D01*
X163405934Y-92389300D01*
X163603954Y-92329232D01*
X163786450Y-92231685D01*
X163946410Y-92100410D01*
X164077685Y-91940450D01*
X164175232Y-91757954D01*
X164235300Y-91559934D01*
X164235301Y-91559929D01*
X164255583Y-91354003D01*
X164255583Y-91353996D01*
X164235301Y-91148070D01*
X164235300Y-91148065D01*
X164186369Y-90986761D01*
X164175232Y-90950046D01*
X164077685Y-90767550D01*
X163946410Y-90607590D01*
X163946404Y-90607585D01*
X163786452Y-90476316D01*
X163603954Y-90378768D01*
X163519787Y-90353236D01*
X163469591Y-90318252D01*
X163449545Y-90260444D01*
X163467306Y-90201893D01*
X163516090Y-90164964D01*
X163548526Y-90159500D01*
X165391474Y-90159500D01*
X165449665Y-90178407D01*
X165485629Y-90227907D01*
X165485629Y-90289093D01*
X165449665Y-90338593D01*
X165420212Y-90353236D01*
X165389411Y-90362579D01*
X165336045Y-90378768D01*
X165153547Y-90476316D01*
X164993595Y-90607585D01*
X164993585Y-90607595D01*
X164862316Y-90767547D01*
X164764768Y-90950045D01*
X164704699Y-91148065D01*
X164704698Y-91148070D01*
X164684417Y-91353996D01*
X164684417Y-91354003D01*
X164704698Y-91559929D01*
X164704699Y-91559934D01*
X164764768Y-91757954D01*
X164862316Y-91940452D01*
X164993585Y-92100404D01*
X164993590Y-92100410D01*
X164993595Y-92100414D01*
X165153547Y-92231683D01*
X165153548Y-92231683D01*
X165153550Y-92231685D01*
X165336046Y-92329232D01*
X165473997Y-92371078D01*
X165534065Y-92389300D01*
X165534070Y-92389301D01*
X165739997Y-92409583D01*
X165740000Y-92409583D01*
X165740003Y-92409583D01*
X165945929Y-92389301D01*
X165945934Y-92389300D01*
X166143954Y-92329232D01*
X166326450Y-92231685D01*
X166486410Y-92100410D01*
X166617685Y-91940450D01*
X166715232Y-91757954D01*
X166775300Y-91559934D01*
X166775301Y-91559929D01*
X166795583Y-91354003D01*
X166795583Y-91353996D01*
X166775301Y-91148070D01*
X166775300Y-91148065D01*
X166726369Y-90986761D01*
X166715232Y-90950046D01*
X166617685Y-90767550D01*
X166486410Y-90607590D01*
X166486404Y-90607585D01*
X166326452Y-90476316D01*
X166143954Y-90378768D01*
X166059787Y-90353236D01*
X166009591Y-90318252D01*
X165989545Y-90260444D01*
X166007306Y-90201893D01*
X166056090Y-90164964D01*
X166088526Y-90159500D01*
X167931474Y-90159500D01*
X167989665Y-90178407D01*
X168025629Y-90227907D01*
X168025629Y-90289093D01*
X167989665Y-90338593D01*
X167960212Y-90353236D01*
X167929411Y-90362579D01*
X167876045Y-90378768D01*
X167693547Y-90476316D01*
X167533595Y-90607585D01*
X167533585Y-90607595D01*
X167402316Y-90767547D01*
X167304768Y-90950045D01*
X167244699Y-91148065D01*
X167244698Y-91148070D01*
X167224417Y-91353996D01*
X167224417Y-91354003D01*
X167244698Y-91559929D01*
X167244699Y-91559934D01*
X167304768Y-91757954D01*
X167402316Y-91940452D01*
X167533585Y-92100404D01*
X167533590Y-92100410D01*
X167533595Y-92100414D01*
X167693547Y-92231683D01*
X167693548Y-92231683D01*
X167693550Y-92231685D01*
X167876046Y-92329232D01*
X168013997Y-92371078D01*
X168074065Y-92389300D01*
X168074070Y-92389301D01*
X168279997Y-92409583D01*
X168280000Y-92409583D01*
X168280003Y-92409583D01*
X168485929Y-92389301D01*
X168485934Y-92389300D01*
X168683954Y-92329232D01*
X168866450Y-92231685D01*
X169026410Y-92100410D01*
X169157685Y-91940450D01*
X169255232Y-91757954D01*
X169315300Y-91559934D01*
X169315301Y-91559929D01*
X169335583Y-91354003D01*
X169335583Y-91353996D01*
X169315301Y-91148070D01*
X169315300Y-91148065D01*
X169266369Y-90986761D01*
X169255232Y-90950046D01*
X169157685Y-90767550D01*
X169026410Y-90607590D01*
X169026404Y-90607585D01*
X168866452Y-90476316D01*
X168683954Y-90378768D01*
X168599787Y-90353236D01*
X168549591Y-90318252D01*
X168529545Y-90260444D01*
X168547306Y-90201893D01*
X168596090Y-90164964D01*
X168628526Y-90159500D01*
X170471474Y-90159500D01*
X170529665Y-90178407D01*
X170565629Y-90227907D01*
X170565629Y-90289093D01*
X170529665Y-90338593D01*
X170500212Y-90353236D01*
X170469411Y-90362579D01*
X170416045Y-90378768D01*
X170233547Y-90476316D01*
X170073595Y-90607585D01*
X170073585Y-90607595D01*
X169942316Y-90767547D01*
X169844768Y-90950045D01*
X169784699Y-91148065D01*
X169784698Y-91148070D01*
X169764417Y-91353996D01*
X169764417Y-91354003D01*
X169784698Y-91559929D01*
X169784699Y-91559934D01*
X169844768Y-91757954D01*
X169942316Y-91940452D01*
X170073585Y-92100404D01*
X170073590Y-92100410D01*
X170073595Y-92100414D01*
X170233547Y-92231683D01*
X170233548Y-92231683D01*
X170233550Y-92231685D01*
X170416046Y-92329232D01*
X170553997Y-92371078D01*
X170614065Y-92389300D01*
X170614070Y-92389301D01*
X170819997Y-92409583D01*
X170820000Y-92409583D01*
X170820003Y-92409583D01*
X171025929Y-92389301D01*
X171025934Y-92389300D01*
X171223954Y-92329232D01*
X171406450Y-92231685D01*
X171566410Y-92100410D01*
X171697685Y-91940450D01*
X171795232Y-91757954D01*
X171855300Y-91559934D01*
X171855301Y-91559929D01*
X171875583Y-91354003D01*
X171875583Y-91353996D01*
X171855301Y-91148070D01*
X171855300Y-91148065D01*
X171806369Y-90986761D01*
X171795232Y-90950046D01*
X171697685Y-90767550D01*
X171566410Y-90607590D01*
X171566404Y-90607585D01*
X171406452Y-90476316D01*
X171223954Y-90378768D01*
X171139787Y-90353236D01*
X171089591Y-90318252D01*
X171069545Y-90260444D01*
X171087306Y-90201893D01*
X171136090Y-90164964D01*
X171168526Y-90159500D01*
X173011474Y-90159500D01*
X173069665Y-90178407D01*
X173105629Y-90227907D01*
X173105629Y-90289093D01*
X173069665Y-90338593D01*
X173040212Y-90353236D01*
X173009411Y-90362579D01*
X172956045Y-90378768D01*
X172773547Y-90476316D01*
X172613595Y-90607585D01*
X172613585Y-90607595D01*
X172482316Y-90767547D01*
X172384768Y-90950045D01*
X172324699Y-91148065D01*
X172324698Y-91148070D01*
X172304417Y-91353996D01*
X172304417Y-91354003D01*
X172324698Y-91559929D01*
X172324699Y-91559934D01*
X172384768Y-91757954D01*
X172482316Y-91940452D01*
X172613585Y-92100404D01*
X172613590Y-92100410D01*
X172613595Y-92100414D01*
X172773547Y-92231683D01*
X172773548Y-92231683D01*
X172773550Y-92231685D01*
X172956046Y-92329232D01*
X173093997Y-92371078D01*
X173154065Y-92389300D01*
X173154070Y-92389301D01*
X173359997Y-92409583D01*
X173360000Y-92409583D01*
X173360003Y-92409583D01*
X173565929Y-92389301D01*
X173565934Y-92389300D01*
X173763954Y-92329232D01*
X173946450Y-92231685D01*
X174106410Y-92100410D01*
X174237685Y-91940450D01*
X174335232Y-91757954D01*
X174395300Y-91559934D01*
X174395301Y-91559929D01*
X174415583Y-91354003D01*
X174415583Y-91353996D01*
X174395301Y-91148070D01*
X174395300Y-91148065D01*
X174346369Y-90986761D01*
X174335232Y-90950046D01*
X174237685Y-90767550D01*
X174106410Y-90607590D01*
X174106404Y-90607585D01*
X173946452Y-90476316D01*
X173763954Y-90378768D01*
X173679787Y-90353236D01*
X173629591Y-90318252D01*
X173609545Y-90260444D01*
X173627306Y-90201893D01*
X173676090Y-90164964D01*
X173708526Y-90159500D01*
X175551474Y-90159500D01*
X175609665Y-90178407D01*
X175645629Y-90227907D01*
X175645629Y-90289093D01*
X175609665Y-90338593D01*
X175580212Y-90353236D01*
X175549411Y-90362579D01*
X175496045Y-90378768D01*
X175313547Y-90476316D01*
X175153595Y-90607585D01*
X175153585Y-90607595D01*
X175022316Y-90767547D01*
X174924768Y-90950045D01*
X174864699Y-91148065D01*
X174864698Y-91148070D01*
X174844417Y-91353996D01*
X174844417Y-91354003D01*
X174864698Y-91559929D01*
X174864699Y-91559934D01*
X174924768Y-91757954D01*
X175022316Y-91940452D01*
X175153585Y-92100404D01*
X175153590Y-92100410D01*
X175153595Y-92100414D01*
X175313547Y-92231683D01*
X175313548Y-92231683D01*
X175313550Y-92231685D01*
X175496046Y-92329232D01*
X175633997Y-92371078D01*
X175694065Y-92389300D01*
X175694070Y-92389301D01*
X175899997Y-92409583D01*
X175900000Y-92409583D01*
X175900003Y-92409583D01*
X176105929Y-92389301D01*
X176105934Y-92389300D01*
X176303954Y-92329232D01*
X176486450Y-92231685D01*
X176646410Y-92100410D01*
X176777685Y-91940450D01*
X176875232Y-91757954D01*
X176935300Y-91559934D01*
X176935301Y-91559929D01*
X176955583Y-91354003D01*
X176955583Y-91353996D01*
X176935301Y-91148070D01*
X176935300Y-91148065D01*
X176886369Y-90986761D01*
X176875232Y-90950046D01*
X176777685Y-90767550D01*
X176646410Y-90607590D01*
X176646404Y-90607585D01*
X176486452Y-90476316D01*
X176303954Y-90378768D01*
X176219787Y-90353236D01*
X176169591Y-90318252D01*
X176149545Y-90260444D01*
X176167306Y-90201893D01*
X176216090Y-90164964D01*
X176248526Y-90159500D01*
X178091474Y-90159500D01*
X178149665Y-90178407D01*
X178185629Y-90227907D01*
X178185629Y-90289093D01*
X178149665Y-90338593D01*
X178120212Y-90353236D01*
X178089411Y-90362579D01*
X178036045Y-90378768D01*
X177853547Y-90476316D01*
X177693595Y-90607585D01*
X177693585Y-90607595D01*
X177562316Y-90767547D01*
X177464768Y-90950045D01*
X177404699Y-91148065D01*
X177404698Y-91148070D01*
X177384417Y-91353996D01*
X177384417Y-91354003D01*
X177404698Y-91559929D01*
X177404699Y-91559934D01*
X177464768Y-91757954D01*
X177562316Y-91940452D01*
X177693585Y-92100404D01*
X177693590Y-92100410D01*
X177693595Y-92100414D01*
X177853547Y-92231683D01*
X177853548Y-92231683D01*
X177853550Y-92231685D01*
X178036046Y-92329232D01*
X178173997Y-92371078D01*
X178234065Y-92389300D01*
X178234070Y-92389301D01*
X178439997Y-92409583D01*
X178440000Y-92409583D01*
X178440003Y-92409583D01*
X178645929Y-92389301D01*
X178645934Y-92389300D01*
X178843954Y-92329232D01*
X179026450Y-92231685D01*
X179186410Y-92100410D01*
X179317685Y-91940450D01*
X179415232Y-91757954D01*
X179475300Y-91559934D01*
X179475301Y-91559929D01*
X179495583Y-91354003D01*
X179495583Y-91353996D01*
X179475301Y-91148070D01*
X179475300Y-91148065D01*
X179426369Y-90986761D01*
X179415232Y-90950046D01*
X179317685Y-90767550D01*
X179186410Y-90607590D01*
X179186404Y-90607585D01*
X179026452Y-90476316D01*
X178843954Y-90378768D01*
X178759787Y-90353236D01*
X178709591Y-90318252D01*
X178689545Y-90260444D01*
X178707306Y-90201893D01*
X178756090Y-90164964D01*
X178788526Y-90159500D01*
X180631474Y-90159500D01*
X180689665Y-90178407D01*
X180725629Y-90227907D01*
X180725629Y-90289093D01*
X180689665Y-90338593D01*
X180660212Y-90353236D01*
X180629411Y-90362579D01*
X180576045Y-90378768D01*
X180393547Y-90476316D01*
X180233595Y-90607585D01*
X180233585Y-90607595D01*
X180102316Y-90767547D01*
X180004768Y-90950045D01*
X179944699Y-91148065D01*
X179944698Y-91148070D01*
X179924417Y-91353996D01*
X179924417Y-91354003D01*
X179944698Y-91559929D01*
X179944699Y-91559934D01*
X180004768Y-91757954D01*
X180102316Y-91940452D01*
X180233585Y-92100404D01*
X180233590Y-92100410D01*
X180233595Y-92100414D01*
X180393547Y-92231683D01*
X180393548Y-92231683D01*
X180393550Y-92231685D01*
X180576046Y-92329232D01*
X180713997Y-92371078D01*
X180774065Y-92389300D01*
X180774070Y-92389301D01*
X180979997Y-92409583D01*
X180980000Y-92409583D01*
X180980003Y-92409583D01*
X181185929Y-92389301D01*
X181185934Y-92389300D01*
X181383954Y-92329232D01*
X181566450Y-92231685D01*
X181726410Y-92100410D01*
X181857685Y-91940450D01*
X181955232Y-91757954D01*
X182015300Y-91559934D01*
X182015301Y-91559929D01*
X182035583Y-91354003D01*
X182035583Y-91353996D01*
X182015301Y-91148070D01*
X182015300Y-91148065D01*
X181966369Y-90986761D01*
X181955232Y-90950046D01*
X181857685Y-90767550D01*
X181726410Y-90607590D01*
X181726404Y-90607585D01*
X181566452Y-90476316D01*
X181383954Y-90378768D01*
X181299787Y-90353236D01*
X181249591Y-90318252D01*
X181229545Y-90260444D01*
X181247306Y-90201893D01*
X181296090Y-90164964D01*
X181328526Y-90159500D01*
X183171474Y-90159500D01*
X183229665Y-90178407D01*
X183265629Y-90227907D01*
X183265629Y-90289093D01*
X183229665Y-90338593D01*
X183200212Y-90353236D01*
X183169411Y-90362579D01*
X183116045Y-90378768D01*
X182933547Y-90476316D01*
X182773595Y-90607585D01*
X182773585Y-90607595D01*
X182642316Y-90767547D01*
X182544768Y-90950045D01*
X182484699Y-91148065D01*
X182484698Y-91148070D01*
X182464417Y-91353996D01*
X182464417Y-91354003D01*
X182484698Y-91559929D01*
X182484699Y-91559934D01*
X182544768Y-91757954D01*
X182642316Y-91940452D01*
X182773585Y-92100404D01*
X182773590Y-92100410D01*
X182773595Y-92100414D01*
X182933547Y-92231683D01*
X182933548Y-92231683D01*
X182933550Y-92231685D01*
X183116046Y-92329232D01*
X183253997Y-92371078D01*
X183314065Y-92389300D01*
X183314070Y-92389301D01*
X183519997Y-92409583D01*
X183520000Y-92409583D01*
X183520003Y-92409583D01*
X183725929Y-92389301D01*
X183725934Y-92389300D01*
X183923954Y-92329232D01*
X184106450Y-92231685D01*
X184266410Y-92100410D01*
X184397685Y-91940450D01*
X184495232Y-91757954D01*
X184555300Y-91559934D01*
X184555301Y-91559929D01*
X184575583Y-91354003D01*
X184575583Y-91353996D01*
X184555301Y-91148070D01*
X184555300Y-91148065D01*
X184506369Y-90986761D01*
X184495232Y-90950046D01*
X184397685Y-90767550D01*
X184266410Y-90607590D01*
X184266404Y-90607585D01*
X184106452Y-90476316D01*
X183923954Y-90378768D01*
X183839787Y-90353236D01*
X183789591Y-90318252D01*
X183769545Y-90260444D01*
X183787306Y-90201893D01*
X183836090Y-90164964D01*
X183868526Y-90159500D01*
X185711474Y-90159500D01*
X185769665Y-90178407D01*
X185805629Y-90227907D01*
X185805629Y-90289093D01*
X185769665Y-90338593D01*
X185740212Y-90353236D01*
X185709411Y-90362579D01*
X185656045Y-90378768D01*
X185473547Y-90476316D01*
X185313595Y-90607585D01*
X185313585Y-90607595D01*
X185182316Y-90767547D01*
X185084768Y-90950045D01*
X185024699Y-91148065D01*
X185024698Y-91148070D01*
X185004417Y-91353996D01*
X185004417Y-91354003D01*
X185024698Y-91559929D01*
X185024699Y-91559934D01*
X185084768Y-91757954D01*
X185182316Y-91940452D01*
X185313585Y-92100404D01*
X185313590Y-92100410D01*
X185313595Y-92100414D01*
X185473547Y-92231683D01*
X185473548Y-92231683D01*
X185473550Y-92231685D01*
X185656046Y-92329232D01*
X185793997Y-92371078D01*
X185854065Y-92389300D01*
X185854070Y-92389301D01*
X186059997Y-92409583D01*
X186060000Y-92409583D01*
X186060003Y-92409583D01*
X186265929Y-92389301D01*
X186265934Y-92389300D01*
X186463954Y-92329232D01*
X186646450Y-92231685D01*
X186806410Y-92100410D01*
X186937685Y-91940450D01*
X187035232Y-91757954D01*
X187095300Y-91559934D01*
X187095301Y-91559929D01*
X187115583Y-91354003D01*
X187115583Y-91353996D01*
X187095301Y-91148070D01*
X187095300Y-91148065D01*
X187046369Y-90986761D01*
X187035232Y-90950046D01*
X186937685Y-90767550D01*
X186806410Y-90607590D01*
X186806404Y-90607585D01*
X186646452Y-90476316D01*
X186463954Y-90378768D01*
X186379787Y-90353236D01*
X186329591Y-90318252D01*
X186309545Y-90260444D01*
X186327306Y-90201893D01*
X186376090Y-90164964D01*
X186408526Y-90159500D01*
X188251474Y-90159500D01*
X188309665Y-90178407D01*
X188345629Y-90227907D01*
X188345629Y-90289093D01*
X188309665Y-90338593D01*
X188280212Y-90353236D01*
X188249411Y-90362579D01*
X188196045Y-90378768D01*
X188013547Y-90476316D01*
X187853595Y-90607585D01*
X187853585Y-90607595D01*
X187722316Y-90767547D01*
X187624768Y-90950045D01*
X187564699Y-91148065D01*
X187564698Y-91148070D01*
X187544417Y-91353996D01*
X187544417Y-91354003D01*
X187564698Y-91559929D01*
X187564699Y-91559934D01*
X187624768Y-91757954D01*
X187722316Y-91940452D01*
X187853585Y-92100404D01*
X187853590Y-92100410D01*
X187853595Y-92100414D01*
X188013547Y-92231683D01*
X188013548Y-92231683D01*
X188013550Y-92231685D01*
X188196046Y-92329232D01*
X188333997Y-92371078D01*
X188394065Y-92389300D01*
X188394070Y-92389301D01*
X188599997Y-92409583D01*
X188600000Y-92409583D01*
X188600003Y-92409583D01*
X188805929Y-92389301D01*
X188805934Y-92389300D01*
X189003954Y-92329232D01*
X189186450Y-92231685D01*
X189346410Y-92100410D01*
X189477685Y-91940450D01*
X189575232Y-91757954D01*
X189635300Y-91559934D01*
X189635301Y-91559929D01*
X189655583Y-91354003D01*
X189655583Y-91353996D01*
X189635301Y-91148070D01*
X189635300Y-91148065D01*
X189586369Y-90986761D01*
X189575232Y-90950046D01*
X189477685Y-90767550D01*
X189346410Y-90607590D01*
X189346404Y-90607585D01*
X189186452Y-90476316D01*
X189003954Y-90378768D01*
X188919787Y-90353236D01*
X188869591Y-90318252D01*
X188849545Y-90260444D01*
X188867306Y-90201893D01*
X188916090Y-90164964D01*
X188948526Y-90159500D01*
X190791474Y-90159500D01*
X190849665Y-90178407D01*
X190885629Y-90227907D01*
X190885629Y-90289093D01*
X190849665Y-90338593D01*
X190820212Y-90353236D01*
X190789411Y-90362579D01*
X190736045Y-90378768D01*
X190553547Y-90476316D01*
X190393595Y-90607585D01*
X190393585Y-90607595D01*
X190262316Y-90767547D01*
X190164768Y-90950045D01*
X190104699Y-91148065D01*
X190104698Y-91148070D01*
X190084417Y-91353996D01*
X190084417Y-91354003D01*
X190104698Y-91559929D01*
X190104699Y-91559934D01*
X190164768Y-91757954D01*
X190262316Y-91940452D01*
X190393585Y-92100404D01*
X190393590Y-92100410D01*
X190393595Y-92100414D01*
X190553547Y-92231683D01*
X190553548Y-92231683D01*
X190553550Y-92231685D01*
X190736046Y-92329232D01*
X190873997Y-92371078D01*
X190934065Y-92389300D01*
X190934070Y-92389301D01*
X191139997Y-92409583D01*
X191140000Y-92409583D01*
X191140003Y-92409583D01*
X191345929Y-92389301D01*
X191345934Y-92389300D01*
X191543954Y-92329232D01*
X191726450Y-92231685D01*
X191886410Y-92100410D01*
X192017685Y-91940450D01*
X192115232Y-91757954D01*
X192175300Y-91559934D01*
X192175301Y-91559929D01*
X192195583Y-91354003D01*
X192195583Y-91353996D01*
X192175301Y-91148070D01*
X192175300Y-91148065D01*
X192126369Y-90986761D01*
X192115232Y-90950046D01*
X192017685Y-90767550D01*
X191886410Y-90607590D01*
X191886404Y-90607585D01*
X191726452Y-90476316D01*
X191543954Y-90378768D01*
X191459787Y-90353236D01*
X191409591Y-90318252D01*
X191389545Y-90260444D01*
X191407306Y-90201893D01*
X191456090Y-90164964D01*
X191488526Y-90159500D01*
X193331474Y-90159500D01*
X193389665Y-90178407D01*
X193425629Y-90227907D01*
X193425629Y-90289093D01*
X193389665Y-90338593D01*
X193360212Y-90353236D01*
X193329411Y-90362579D01*
X193276045Y-90378768D01*
X193093547Y-90476316D01*
X192933595Y-90607585D01*
X192933585Y-90607595D01*
X192802316Y-90767547D01*
X192704768Y-90950045D01*
X192644699Y-91148065D01*
X192644698Y-91148070D01*
X192624417Y-91353996D01*
X192624417Y-91354003D01*
X192644698Y-91559929D01*
X192644699Y-91559934D01*
X192704768Y-91757954D01*
X192802316Y-91940452D01*
X192933585Y-92100404D01*
X192933590Y-92100410D01*
X192933595Y-92100414D01*
X193093547Y-92231683D01*
X193093548Y-92231683D01*
X193093550Y-92231685D01*
X193276046Y-92329232D01*
X193413997Y-92371078D01*
X193474065Y-92389300D01*
X193474070Y-92389301D01*
X193679997Y-92409583D01*
X193680000Y-92409583D01*
X193680003Y-92409583D01*
X193885929Y-92389301D01*
X193885934Y-92389300D01*
X194083954Y-92329232D01*
X194266450Y-92231685D01*
X194426410Y-92100410D01*
X194557685Y-91940450D01*
X194655232Y-91757954D01*
X194715300Y-91559934D01*
X194715301Y-91559929D01*
X194735583Y-91354003D01*
X194735583Y-91353996D01*
X194715301Y-91148070D01*
X194715300Y-91148065D01*
X194666369Y-90986761D01*
X194655232Y-90950046D01*
X194557685Y-90767550D01*
X194426410Y-90607590D01*
X194426404Y-90607585D01*
X194266452Y-90476316D01*
X194083954Y-90378768D01*
X193999787Y-90353236D01*
X193949591Y-90318252D01*
X193929545Y-90260444D01*
X193947306Y-90201893D01*
X193996090Y-90164964D01*
X194028526Y-90159500D01*
X195871474Y-90159500D01*
X195929665Y-90178407D01*
X195965629Y-90227907D01*
X195965629Y-90289093D01*
X195929665Y-90338593D01*
X195900212Y-90353236D01*
X195869411Y-90362579D01*
X195816045Y-90378768D01*
X195633547Y-90476316D01*
X195473595Y-90607585D01*
X195473585Y-90607595D01*
X195342316Y-90767547D01*
X195244768Y-90950045D01*
X195184699Y-91148065D01*
X195184698Y-91148070D01*
X195164417Y-91353996D01*
X195164417Y-91354003D01*
X195184698Y-91559929D01*
X195184699Y-91559934D01*
X195244768Y-91757954D01*
X195342316Y-91940452D01*
X195473585Y-92100404D01*
X195473590Y-92100410D01*
X195473595Y-92100414D01*
X195633547Y-92231683D01*
X195633548Y-92231683D01*
X195633550Y-92231685D01*
X195816046Y-92329232D01*
X195953997Y-92371078D01*
X196014065Y-92389300D01*
X196014070Y-92389301D01*
X196219997Y-92409583D01*
X196220000Y-92409583D01*
X196220003Y-92409583D01*
X196425929Y-92389301D01*
X196425934Y-92389300D01*
X196623954Y-92329232D01*
X196806450Y-92231685D01*
X196966410Y-92100410D01*
X197097685Y-91940450D01*
X197195232Y-91757954D01*
X197255300Y-91559934D01*
X197255301Y-91559929D01*
X197275583Y-91354003D01*
X197275583Y-91353996D01*
X197255301Y-91148070D01*
X197255300Y-91148065D01*
X197206369Y-90986761D01*
X197195232Y-90950046D01*
X197097685Y-90767550D01*
X196966410Y-90607590D01*
X196966404Y-90607585D01*
X196806452Y-90476316D01*
X196623954Y-90378768D01*
X196539787Y-90353236D01*
X196489591Y-90318252D01*
X196469545Y-90260444D01*
X196487306Y-90201893D01*
X196536090Y-90164964D01*
X196568526Y-90159500D01*
X198411474Y-90159500D01*
X198469665Y-90178407D01*
X198505629Y-90227907D01*
X198505629Y-90289093D01*
X198469665Y-90338593D01*
X198440212Y-90353236D01*
X198409411Y-90362579D01*
X198356045Y-90378768D01*
X198173547Y-90476316D01*
X198013595Y-90607585D01*
X198013585Y-90607595D01*
X197882316Y-90767547D01*
X197784768Y-90950045D01*
X197724699Y-91148065D01*
X197724698Y-91148070D01*
X197704417Y-91353996D01*
X197704417Y-91354003D01*
X197724698Y-91559929D01*
X197724699Y-91559934D01*
X197784768Y-91757954D01*
X197882316Y-91940452D01*
X198013585Y-92100404D01*
X198013590Y-92100410D01*
X198013595Y-92100414D01*
X198173547Y-92231683D01*
X198173548Y-92231683D01*
X198173550Y-92231685D01*
X198356046Y-92329232D01*
X198493997Y-92371078D01*
X198554065Y-92389300D01*
X198554070Y-92389301D01*
X198759997Y-92409583D01*
X198760000Y-92409583D01*
X198760003Y-92409583D01*
X198965929Y-92389301D01*
X198965934Y-92389300D01*
X199163954Y-92329232D01*
X199346450Y-92231685D01*
X199506410Y-92100410D01*
X199637685Y-91940450D01*
X199735232Y-91757954D01*
X199795300Y-91559934D01*
X199795301Y-91559929D01*
X199815583Y-91354003D01*
X199815583Y-91353996D01*
X199795301Y-91148070D01*
X199795300Y-91148065D01*
X199746369Y-90986761D01*
X199735232Y-90950046D01*
X199637685Y-90767550D01*
X199506410Y-90607590D01*
X199506404Y-90607585D01*
X199346452Y-90476316D01*
X199163954Y-90378768D01*
X199079787Y-90353236D01*
X199029591Y-90318252D01*
X199009545Y-90260444D01*
X199027306Y-90201893D01*
X199076090Y-90164964D01*
X199108526Y-90159500D01*
X258681500Y-90159500D01*
X258739691Y-90178407D01*
X258775655Y-90227907D01*
X258780500Y-90258500D01*
X258780500Y-139659500D01*
X258761593Y-139717691D01*
X258712093Y-139753655D01*
X258681500Y-139758500D01*
X139280500Y-139758500D01*
X139222309Y-139739593D01*
X139186345Y-139690093D01*
X139181500Y-139659500D01*
X139181500Y-134855533D01*
X145705500Y-134855533D01*
X145705500Y-135062468D01*
X145745869Y-135265419D01*
X145825058Y-135456598D01*
X145825059Y-135456599D01*
X145940023Y-135628656D01*
X146086345Y-135774978D01*
X146258402Y-135889942D01*
X146449580Y-135969131D01*
X146652535Y-136009501D01*
X146652536Y-136009501D01*
X146859464Y-136009501D01*
X146859465Y-136009501D01*
X147062420Y-135969131D01*
X147253598Y-135889942D01*
X147425655Y-135774978D01*
X147571977Y-135628656D01*
X147686941Y-135456599D01*
X147766130Y-135265421D01*
X147806500Y-135062466D01*
X147806500Y-134855536D01*
X147806499Y-134855533D01*
X160626928Y-134855533D01*
X160626928Y-135062468D01*
X160667297Y-135265419D01*
X160746486Y-135456598D01*
X160746487Y-135456599D01*
X160861451Y-135628656D01*
X161007773Y-135774978D01*
X161179830Y-135889942D01*
X161371008Y-135969131D01*
X161573963Y-136009501D01*
X161573964Y-136009501D01*
X161780892Y-136009501D01*
X161780893Y-136009501D01*
X161983848Y-135969131D01*
X162175026Y-135889942D01*
X162347083Y-135774978D01*
X162493405Y-135628656D01*
X162608369Y-135456599D01*
X162687558Y-135265421D01*
X162727928Y-135062466D01*
X162727928Y-134855536D01*
X162727927Y-134855533D01*
X175548356Y-134855533D01*
X175548356Y-135062468D01*
X175588725Y-135265419D01*
X175667914Y-135456598D01*
X175667915Y-135456599D01*
X175782879Y-135628656D01*
X175929201Y-135774978D01*
X176101258Y-135889942D01*
X176292436Y-135969131D01*
X176495391Y-136009501D01*
X176495392Y-136009501D01*
X176702320Y-136009501D01*
X176702321Y-136009501D01*
X176905276Y-135969131D01*
X177096454Y-135889942D01*
X177268511Y-135774978D01*
X177414833Y-135628656D01*
X177529797Y-135456599D01*
X177608986Y-135265421D01*
X177649356Y-135062466D01*
X177649356Y-134855536D01*
X177649355Y-134855533D01*
X190469784Y-134855533D01*
X190469784Y-135062468D01*
X190510153Y-135265419D01*
X190589342Y-135456598D01*
X190589343Y-135456599D01*
X190704307Y-135628656D01*
X190850629Y-135774978D01*
X191022686Y-135889942D01*
X191213864Y-135969131D01*
X191416819Y-136009501D01*
X191416820Y-136009501D01*
X191623748Y-136009501D01*
X191623749Y-136009501D01*
X191826704Y-135969131D01*
X192017882Y-135889942D01*
X192189939Y-135774978D01*
X192336261Y-135628656D01*
X192451225Y-135456599D01*
X192530414Y-135265421D01*
X192570784Y-135062466D01*
X192570784Y-134855536D01*
X192570783Y-134855533D01*
X205391212Y-134855533D01*
X205391212Y-135062468D01*
X205431581Y-135265419D01*
X205510770Y-135456598D01*
X205510771Y-135456599D01*
X205625735Y-135628656D01*
X205772057Y-135774978D01*
X205944114Y-135889942D01*
X206135292Y-135969131D01*
X206338247Y-136009501D01*
X206338248Y-136009501D01*
X206545176Y-136009501D01*
X206545177Y-136009501D01*
X206748132Y-135969131D01*
X206939310Y-135889942D01*
X207111367Y-135774978D01*
X207257689Y-135628656D01*
X207372653Y-135456599D01*
X207451842Y-135265421D01*
X207492212Y-135062466D01*
X207492212Y-134855536D01*
X207492211Y-134855533D01*
X220312640Y-134855533D01*
X220312640Y-135062468D01*
X220353009Y-135265419D01*
X220432198Y-135456598D01*
X220432199Y-135456599D01*
X220547163Y-135628656D01*
X220693485Y-135774978D01*
X220865542Y-135889942D01*
X221056720Y-135969131D01*
X221259675Y-136009501D01*
X221259676Y-136009501D01*
X221466604Y-136009501D01*
X221466605Y-136009501D01*
X221669560Y-135969131D01*
X221860738Y-135889942D01*
X222032795Y-135774978D01*
X222179117Y-135628656D01*
X222294081Y-135456599D01*
X222373270Y-135265421D01*
X222413640Y-135062466D01*
X222413640Y-134855536D01*
X222413639Y-134855533D01*
X235234068Y-134855533D01*
X235234068Y-135062468D01*
X235274437Y-135265419D01*
X235353626Y-135456598D01*
X235353627Y-135456599D01*
X235468591Y-135628656D01*
X235614913Y-135774978D01*
X235786970Y-135889942D01*
X235978148Y-135969131D01*
X236181103Y-136009501D01*
X236181104Y-136009501D01*
X236388032Y-136009501D01*
X236388033Y-136009501D01*
X236590988Y-135969131D01*
X236782166Y-135889942D01*
X236954223Y-135774978D01*
X237100545Y-135628656D01*
X237215509Y-135456599D01*
X237294698Y-135265421D01*
X237335068Y-135062466D01*
X237335068Y-134855536D01*
X237335067Y-134855533D01*
X250155500Y-134855533D01*
X250155500Y-135062468D01*
X250195869Y-135265419D01*
X250275058Y-135456598D01*
X250275059Y-135456599D01*
X250390023Y-135628656D01*
X250536345Y-135774978D01*
X250708402Y-135889942D01*
X250899580Y-135969131D01*
X251102535Y-136009501D01*
X251102536Y-136009501D01*
X251309464Y-136009501D01*
X251309465Y-136009501D01*
X251512420Y-135969131D01*
X251703598Y-135889942D01*
X251875655Y-135774978D01*
X252021977Y-135628656D01*
X252136941Y-135456599D01*
X252216130Y-135265421D01*
X252256500Y-135062466D01*
X252256500Y-134855536D01*
X252216130Y-134652581D01*
X252136941Y-134461403D01*
X252021977Y-134289346D01*
X251875655Y-134143024D01*
X251703598Y-134028060D01*
X251703599Y-134028060D01*
X251703597Y-134028059D01*
X251512418Y-133948870D01*
X251309467Y-133908501D01*
X251309465Y-133908501D01*
X251102535Y-133908501D01*
X251102532Y-133908501D01*
X250899581Y-133948870D01*
X250708402Y-134028059D01*
X250536348Y-134143021D01*
X250390020Y-134289349D01*
X250275058Y-134461403D01*
X250195869Y-134652582D01*
X250155500Y-134855533D01*
X237335067Y-134855533D01*
X237294698Y-134652581D01*
X237215509Y-134461403D01*
X237100545Y-134289346D01*
X236954223Y-134143024D01*
X236782166Y-134028060D01*
X236782167Y-134028060D01*
X236782165Y-134028059D01*
X236590986Y-133948870D01*
X236388035Y-133908501D01*
X236388033Y-133908501D01*
X236181103Y-133908501D01*
X236181100Y-133908501D01*
X235978149Y-133948870D01*
X235786970Y-134028059D01*
X235614916Y-134143021D01*
X235468588Y-134289349D01*
X235353626Y-134461403D01*
X235274437Y-134652582D01*
X235234068Y-134855533D01*
X222413639Y-134855533D01*
X222373270Y-134652581D01*
X222294081Y-134461403D01*
X222179117Y-134289346D01*
X222032795Y-134143024D01*
X221860738Y-134028060D01*
X221860739Y-134028060D01*
X221860737Y-134028059D01*
X221669558Y-133948870D01*
X221466607Y-133908501D01*
X221466605Y-133908501D01*
X221259675Y-133908501D01*
X221259672Y-133908501D01*
X221056721Y-133948870D01*
X220865542Y-134028059D01*
X220693488Y-134143021D01*
X220547160Y-134289349D01*
X220432198Y-134461403D01*
X220353009Y-134652582D01*
X220312640Y-134855533D01*
X207492211Y-134855533D01*
X207451842Y-134652581D01*
X207372653Y-134461403D01*
X207257689Y-134289346D01*
X207111367Y-134143024D01*
X206939310Y-134028060D01*
X206939311Y-134028060D01*
X206939309Y-134028059D01*
X206748130Y-133948870D01*
X206545179Y-133908501D01*
X206545177Y-133908501D01*
X206338247Y-133908501D01*
X206338244Y-133908501D01*
X206135293Y-133948870D01*
X205944114Y-134028059D01*
X205772060Y-134143021D01*
X205625732Y-134289349D01*
X205510770Y-134461403D01*
X205431581Y-134652582D01*
X205391212Y-134855533D01*
X192570783Y-134855533D01*
X192530414Y-134652581D01*
X192451225Y-134461403D01*
X192336261Y-134289346D01*
X192189939Y-134143024D01*
X192017882Y-134028060D01*
X192017883Y-134028060D01*
X192017881Y-134028059D01*
X191826702Y-133948870D01*
X191623751Y-133908501D01*
X191623749Y-133908501D01*
X191416819Y-133908501D01*
X191416816Y-133908501D01*
X191213865Y-133948870D01*
X191022686Y-134028059D01*
X190850632Y-134143021D01*
X190704304Y-134289349D01*
X190589342Y-134461403D01*
X190510153Y-134652582D01*
X190469784Y-134855533D01*
X177649355Y-134855533D01*
X177608986Y-134652581D01*
X177529797Y-134461403D01*
X177414833Y-134289346D01*
X177268511Y-134143024D01*
X177096454Y-134028060D01*
X177096455Y-134028060D01*
X177096453Y-134028059D01*
X176905274Y-133948870D01*
X176702323Y-133908501D01*
X176702321Y-133908501D01*
X176495391Y-133908501D01*
X176495388Y-133908501D01*
X176292437Y-133948870D01*
X176101258Y-134028059D01*
X175929204Y-134143021D01*
X175782876Y-134289349D01*
X175667914Y-134461403D01*
X175588725Y-134652582D01*
X175548356Y-134855533D01*
X162727927Y-134855533D01*
X162687558Y-134652581D01*
X162608369Y-134461403D01*
X162493405Y-134289346D01*
X162347083Y-134143024D01*
X162175026Y-134028060D01*
X162175027Y-134028060D01*
X162175025Y-134028059D01*
X161983846Y-133948870D01*
X161780895Y-133908501D01*
X161780893Y-133908501D01*
X161573963Y-133908501D01*
X161573960Y-133908501D01*
X161371009Y-133948870D01*
X161179830Y-134028059D01*
X161007776Y-134143021D01*
X160861448Y-134289349D01*
X160746486Y-134461403D01*
X160667297Y-134652582D01*
X160626928Y-134855533D01*
X147806499Y-134855533D01*
X147766130Y-134652581D01*
X147686941Y-134461403D01*
X147571977Y-134289346D01*
X147425655Y-134143024D01*
X147253598Y-134028060D01*
X147253599Y-134028060D01*
X147253597Y-134028059D01*
X147062418Y-133948870D01*
X146859467Y-133908501D01*
X146859465Y-133908501D01*
X146652535Y-133908501D01*
X146652532Y-133908501D01*
X146449581Y-133948870D01*
X146258402Y-134028059D01*
X146086348Y-134143021D01*
X145940020Y-134289349D01*
X145825058Y-134461403D01*
X145745869Y-134652582D01*
X145705500Y-134855533D01*
X139181500Y-134855533D01*
X139181500Y-130355532D01*
X145705500Y-130355532D01*
X145705500Y-130562467D01*
X145745869Y-130765418D01*
X145825058Y-130956597D01*
X145825059Y-130956598D01*
X145940023Y-131128655D01*
X146086345Y-131274977D01*
X146258402Y-131389941D01*
X146449580Y-131469130D01*
X146652535Y-131509500D01*
X146652536Y-131509500D01*
X146859464Y-131509500D01*
X146859465Y-131509500D01*
X147062420Y-131469130D01*
X147253598Y-131389941D01*
X147425655Y-131274977D01*
X147571977Y-131128655D01*
X147686941Y-130956598D01*
X147766130Y-130765420D01*
X147806500Y-130562465D01*
X147806500Y-130355535D01*
X147806499Y-130355532D01*
X160626928Y-130355532D01*
X160626928Y-130562467D01*
X160667297Y-130765418D01*
X160746486Y-130956597D01*
X160746487Y-130956598D01*
X160861451Y-131128655D01*
X161007773Y-131274977D01*
X161179830Y-131389941D01*
X161371008Y-131469130D01*
X161573963Y-131509500D01*
X161573964Y-131509500D01*
X161780892Y-131509500D01*
X161780893Y-131509500D01*
X161983848Y-131469130D01*
X162175026Y-131389941D01*
X162347083Y-131274977D01*
X162493405Y-131128655D01*
X162608369Y-130956598D01*
X162687558Y-130765420D01*
X162727928Y-130562465D01*
X162727928Y-130355535D01*
X162727927Y-130355532D01*
X175548356Y-130355532D01*
X175548356Y-130562467D01*
X175588725Y-130765418D01*
X175667914Y-130956597D01*
X175667915Y-130956598D01*
X175782879Y-131128655D01*
X175929201Y-131274977D01*
X176101258Y-131389941D01*
X176292436Y-131469130D01*
X176495391Y-131509500D01*
X176495392Y-131509500D01*
X176702320Y-131509500D01*
X176702321Y-131509500D01*
X176905276Y-131469130D01*
X177096454Y-131389941D01*
X177268511Y-131274977D01*
X177414833Y-131128655D01*
X177529797Y-130956598D01*
X177608986Y-130765420D01*
X177649356Y-130562465D01*
X177649356Y-130355535D01*
X177649355Y-130355532D01*
X190469784Y-130355532D01*
X190469784Y-130562467D01*
X190510153Y-130765418D01*
X190589342Y-130956597D01*
X190589343Y-130956598D01*
X190704307Y-131128655D01*
X190850629Y-131274977D01*
X191022686Y-131389941D01*
X191213864Y-131469130D01*
X191416819Y-131509500D01*
X191416820Y-131509500D01*
X191623748Y-131509500D01*
X191623749Y-131509500D01*
X191826704Y-131469130D01*
X192017882Y-131389941D01*
X192189939Y-131274977D01*
X192336261Y-131128655D01*
X192451225Y-130956598D01*
X192530414Y-130765420D01*
X192570784Y-130562465D01*
X192570784Y-130355535D01*
X192570783Y-130355532D01*
X205391212Y-130355532D01*
X205391212Y-130562467D01*
X205431581Y-130765418D01*
X205510770Y-130956597D01*
X205510771Y-130956598D01*
X205625735Y-131128655D01*
X205772057Y-131274977D01*
X205944114Y-131389941D01*
X206135292Y-131469130D01*
X206338247Y-131509500D01*
X206338248Y-131509500D01*
X206545176Y-131509500D01*
X206545177Y-131509500D01*
X206748132Y-131469130D01*
X206939310Y-131389941D01*
X207111367Y-131274977D01*
X207257689Y-131128655D01*
X207372653Y-130956598D01*
X207451842Y-130765420D01*
X207492212Y-130562465D01*
X207492212Y-130355535D01*
X207492211Y-130355532D01*
X220312640Y-130355532D01*
X220312640Y-130562467D01*
X220353009Y-130765418D01*
X220432198Y-130956597D01*
X220432199Y-130956598D01*
X220547163Y-131128655D01*
X220693485Y-131274977D01*
X220865542Y-131389941D01*
X221056720Y-131469130D01*
X221259675Y-131509500D01*
X221259676Y-131509500D01*
X221466604Y-131509500D01*
X221466605Y-131509500D01*
X221669560Y-131469130D01*
X221860738Y-131389941D01*
X222032795Y-131274977D01*
X222179117Y-131128655D01*
X222294081Y-130956598D01*
X222373270Y-130765420D01*
X222413640Y-130562465D01*
X222413640Y-130355535D01*
X222413639Y-130355532D01*
X235234068Y-130355532D01*
X235234068Y-130562467D01*
X235274437Y-130765418D01*
X235353626Y-130956597D01*
X235353627Y-130956598D01*
X235468591Y-131128655D01*
X235614913Y-131274977D01*
X235786970Y-131389941D01*
X235978148Y-131469130D01*
X236181103Y-131509500D01*
X236181104Y-131509500D01*
X236388032Y-131509500D01*
X236388033Y-131509500D01*
X236590988Y-131469130D01*
X236782166Y-131389941D01*
X236954223Y-131274977D01*
X237100545Y-131128655D01*
X237215509Y-130956598D01*
X237294698Y-130765420D01*
X237335068Y-130562465D01*
X237335068Y-130355535D01*
X237335067Y-130355532D01*
X250155500Y-130355532D01*
X250155500Y-130562467D01*
X250195869Y-130765418D01*
X250275058Y-130956597D01*
X250275059Y-130956598D01*
X250390023Y-131128655D01*
X250536345Y-131274977D01*
X250708402Y-131389941D01*
X250899580Y-131469130D01*
X251102535Y-131509500D01*
X251102536Y-131509500D01*
X251309464Y-131509500D01*
X251309465Y-131509500D01*
X251512420Y-131469130D01*
X251703598Y-131389941D01*
X251875655Y-131274977D01*
X252021977Y-131128655D01*
X252136941Y-130956598D01*
X252216130Y-130765420D01*
X252256500Y-130562465D01*
X252256500Y-130355535D01*
X252216130Y-130152580D01*
X252136941Y-129961402D01*
X252021977Y-129789345D01*
X251875655Y-129643023D01*
X251703598Y-129528059D01*
X251703599Y-129528059D01*
X251703597Y-129528058D01*
X251512418Y-129448869D01*
X251309467Y-129408500D01*
X251309465Y-129408500D01*
X251102535Y-129408500D01*
X251102532Y-129408500D01*
X250899581Y-129448869D01*
X250708402Y-129528058D01*
X250536348Y-129643020D01*
X250390020Y-129789348D01*
X250275058Y-129961402D01*
X250195869Y-130152581D01*
X250155500Y-130355532D01*
X237335067Y-130355532D01*
X237294698Y-130152580D01*
X237215509Y-129961402D01*
X237100545Y-129789345D01*
X236954223Y-129643023D01*
X236782166Y-129528059D01*
X236782167Y-129528059D01*
X236782165Y-129528058D01*
X236590986Y-129448869D01*
X236388035Y-129408500D01*
X236388033Y-129408500D01*
X236181103Y-129408500D01*
X236181100Y-129408500D01*
X235978149Y-129448869D01*
X235786970Y-129528058D01*
X235614916Y-129643020D01*
X235468588Y-129789348D01*
X235353626Y-129961402D01*
X235274437Y-130152581D01*
X235234068Y-130355532D01*
X222413639Y-130355532D01*
X222373270Y-130152580D01*
X222294081Y-129961402D01*
X222179117Y-129789345D01*
X222032795Y-129643023D01*
X221860738Y-129528059D01*
X221860739Y-129528059D01*
X221860737Y-129528058D01*
X221669558Y-129448869D01*
X221466607Y-129408500D01*
X221466605Y-129408500D01*
X221259675Y-129408500D01*
X221259672Y-129408500D01*
X221056721Y-129448869D01*
X220865542Y-129528058D01*
X220693488Y-129643020D01*
X220547160Y-129789348D01*
X220432198Y-129961402D01*
X220353009Y-130152581D01*
X220312640Y-130355532D01*
X207492211Y-130355532D01*
X207451842Y-130152580D01*
X207372653Y-129961402D01*
X207257689Y-129789345D01*
X207111367Y-129643023D01*
X206939310Y-129528059D01*
X206939311Y-129528059D01*
X206939309Y-129528058D01*
X206748130Y-129448869D01*
X206545179Y-129408500D01*
X206545177Y-129408500D01*
X206338247Y-129408500D01*
X206338244Y-129408500D01*
X206135293Y-129448869D01*
X205944114Y-129528058D01*
X205772060Y-129643020D01*
X205625732Y-129789348D01*
X205510770Y-129961402D01*
X205431581Y-130152581D01*
X205391212Y-130355532D01*
X192570783Y-130355532D01*
X192530414Y-130152580D01*
X192451225Y-129961402D01*
X192336261Y-129789345D01*
X192189939Y-129643023D01*
X192017882Y-129528059D01*
X192017883Y-129528059D01*
X192017881Y-129528058D01*
X191826702Y-129448869D01*
X191623751Y-129408500D01*
X191623749Y-129408500D01*
X191416819Y-129408500D01*
X191416816Y-129408500D01*
X191213865Y-129448869D01*
X191022686Y-129528058D01*
X190850632Y-129643020D01*
X190704304Y-129789348D01*
X190589342Y-129961402D01*
X190510153Y-130152581D01*
X190469784Y-130355532D01*
X177649355Y-130355532D01*
X177608986Y-130152580D01*
X177529797Y-129961402D01*
X177414833Y-129789345D01*
X177268511Y-129643023D01*
X177096454Y-129528059D01*
X177096455Y-129528059D01*
X177096453Y-129528058D01*
X176905274Y-129448869D01*
X176702323Y-129408500D01*
X176702321Y-129408500D01*
X176495391Y-129408500D01*
X176495388Y-129408500D01*
X176292437Y-129448869D01*
X176101258Y-129528058D01*
X175929204Y-129643020D01*
X175782876Y-129789348D01*
X175667914Y-129961402D01*
X175588725Y-130152581D01*
X175548356Y-130355532D01*
X162727927Y-130355532D01*
X162687558Y-130152580D01*
X162608369Y-129961402D01*
X162493405Y-129789345D01*
X162347083Y-129643023D01*
X162175026Y-129528059D01*
X162175027Y-129528059D01*
X162175025Y-129528058D01*
X161983846Y-129448869D01*
X161780895Y-129408500D01*
X161780893Y-129408500D01*
X161573963Y-129408500D01*
X161573960Y-129408500D01*
X161371009Y-129448869D01*
X161179830Y-129528058D01*
X161007776Y-129643020D01*
X160861448Y-129789348D01*
X160746486Y-129961402D01*
X160667297Y-130152581D01*
X160626928Y-130355532D01*
X147806499Y-130355532D01*
X147766130Y-130152580D01*
X147686941Y-129961402D01*
X147571977Y-129789345D01*
X147425655Y-129643023D01*
X147253598Y-129528059D01*
X147253599Y-129528059D01*
X147253597Y-129528058D01*
X147062418Y-129448869D01*
X146859467Y-129408500D01*
X146859465Y-129408500D01*
X146652535Y-129408500D01*
X146652532Y-129408500D01*
X146449581Y-129448869D01*
X146258402Y-129528058D01*
X146086348Y-129643020D01*
X145940020Y-129789348D01*
X145825058Y-129961402D01*
X145745869Y-130152581D01*
X145705500Y-130355532D01*
X139181500Y-130355532D01*
X139181500Y-122323121D01*
X150649500Y-122323121D01*
X150649500Y-122676878D01*
X150684174Y-123028936D01*
X150753191Y-123375907D01*
X150855878Y-123714426D01*
X150855882Y-123714435D01*
X150991261Y-124041269D01*
X151158024Y-124353259D01*
X151354564Y-124647402D01*
X151578988Y-124920864D01*
X151829136Y-125171012D01*
X152102598Y-125395436D01*
X152396741Y-125591976D01*
X152708731Y-125758739D01*
X153035565Y-125894118D01*
X153035567Y-125894118D01*
X153035573Y-125894121D01*
X153328170Y-125982878D01*
X153374095Y-125996809D01*
X153721060Y-126065825D01*
X154073119Y-126100500D01*
X154073122Y-126100500D01*
X154426878Y-126100500D01*
X154426881Y-126100500D01*
X154778940Y-126065825D01*
X155125905Y-125996809D01*
X155326661Y-125935910D01*
X155464426Y-125894121D01*
X155464428Y-125894119D01*
X155464435Y-125894118D01*
X155791269Y-125758739D01*
X156103259Y-125591976D01*
X156397402Y-125395436D01*
X156670864Y-125171012D01*
X156921012Y-124920864D01*
X157145436Y-124647402D01*
X157341976Y-124353259D01*
X157508739Y-124041269D01*
X157644118Y-123714435D01*
X157746809Y-123375905D01*
X157815825Y-123028940D01*
X157850500Y-122676881D01*
X157850500Y-122323121D01*
X240149500Y-122323121D01*
X240149500Y-122676878D01*
X240184174Y-123028936D01*
X240253191Y-123375907D01*
X240355878Y-123714426D01*
X240355882Y-123714435D01*
X240491261Y-124041269D01*
X240658024Y-124353259D01*
X240854564Y-124647402D01*
X241078988Y-124920864D01*
X241329136Y-125171012D01*
X241602598Y-125395436D01*
X241896741Y-125591976D01*
X242208731Y-125758739D01*
X242535565Y-125894118D01*
X242535567Y-125894118D01*
X242535573Y-125894121D01*
X242828170Y-125982878D01*
X242874095Y-125996809D01*
X243221060Y-126065825D01*
X243573119Y-126100500D01*
X243573122Y-126100500D01*
X243926878Y-126100500D01*
X243926881Y-126100500D01*
X244278940Y-126065825D01*
X244625905Y-125996809D01*
X244826661Y-125935910D01*
X244964426Y-125894121D01*
X244964428Y-125894119D01*
X244964435Y-125894118D01*
X245291269Y-125758739D01*
X245603259Y-125591976D01*
X245897402Y-125395436D01*
X246170864Y-125171012D01*
X246421012Y-124920864D01*
X246645436Y-124647402D01*
X246841976Y-124353259D01*
X247008739Y-124041269D01*
X247144118Y-123714435D01*
X247246809Y-123375905D01*
X247315825Y-123028940D01*
X247350500Y-122676881D01*
X247350500Y-122323119D01*
X247315825Y-121971060D01*
X247246809Y-121624095D01*
X247232878Y-121578170D01*
X247144121Y-121285573D01*
X247008742Y-120958739D01*
X247008739Y-120958731D01*
X246841976Y-120646741D01*
X246645436Y-120352598D01*
X246421012Y-120079136D01*
X246170864Y-119828988D01*
X245897402Y-119604564D01*
X245753289Y-119508271D01*
X245603267Y-119408029D01*
X245603264Y-119408027D01*
X245603259Y-119408024D01*
X245291269Y-119241261D01*
X245291263Y-119241258D01*
X245291260Y-119241257D01*
X244964426Y-119105878D01*
X244625907Y-119003191D01*
X244392466Y-118956756D01*
X244278940Y-118934175D01*
X244278938Y-118934174D01*
X244021576Y-118908826D01*
X243926881Y-118899500D01*
X243573119Y-118899500D01*
X243469097Y-118909745D01*
X243221063Y-118934174D01*
X242874092Y-119003191D01*
X242535573Y-119105878D01*
X242208739Y-119241257D01*
X242208721Y-119241266D01*
X241896732Y-119408029D01*
X241602596Y-119604565D01*
X241329141Y-119828983D01*
X241078983Y-120079141D01*
X240854565Y-120352596D01*
X240658029Y-120646732D01*
X240491266Y-120958721D01*
X240491257Y-120958739D01*
X240355878Y-121285573D01*
X240253191Y-121624092D01*
X240184174Y-121971063D01*
X240149500Y-122323121D01*
X157850500Y-122323121D01*
X157850500Y-122323119D01*
X157815825Y-121971060D01*
X157746809Y-121624095D01*
X157732878Y-121578170D01*
X157644121Y-121285573D01*
X157508742Y-120958739D01*
X157508739Y-120958731D01*
X157341976Y-120646741D01*
X157145436Y-120352598D01*
X156921012Y-120079136D01*
X156670864Y-119828988D01*
X156397402Y-119604564D01*
X156253289Y-119508271D01*
X156103267Y-119408029D01*
X156103264Y-119408027D01*
X156103259Y-119408024D01*
X155791269Y-119241261D01*
X155791263Y-119241258D01*
X155791260Y-119241257D01*
X155464426Y-119105878D01*
X155125907Y-119003191D01*
X154892466Y-118956756D01*
X154778940Y-118934175D01*
X154778938Y-118934174D01*
X154521576Y-118908826D01*
X154426881Y-118899500D01*
X154073119Y-118899500D01*
X153969097Y-118909745D01*
X153721063Y-118934174D01*
X153374092Y-119003191D01*
X153035573Y-119105878D01*
X152708739Y-119241257D01*
X152708721Y-119241266D01*
X152396732Y-119408029D01*
X152102596Y-119604565D01*
X151829141Y-119828983D01*
X151578983Y-120079141D01*
X151354565Y-120352596D01*
X151158029Y-120646732D01*
X150991266Y-120958721D01*
X150991257Y-120958739D01*
X150855878Y-121285573D01*
X150753191Y-121624092D01*
X150684174Y-121971063D01*
X150649500Y-122323121D01*
X139181500Y-122323121D01*
X139181500Y-110999998D01*
X209594722Y-110999998D01*
X209594722Y-111000001D01*
X209613762Y-111156816D01*
X209613763Y-111156817D01*
X209669780Y-111304523D01*
X209759515Y-111434528D01*
X209759516Y-111434529D01*
X209759517Y-111434530D01*
X209877760Y-111539283D01*
X210017635Y-111612696D01*
X210171015Y-111650500D01*
X210171018Y-111650500D01*
X210328982Y-111650500D01*
X210328985Y-111650500D01*
X210417162Y-111628765D01*
X210422555Y-111627597D01*
X210744289Y-111567272D01*
X211091194Y-111502229D01*
X211091317Y-111502886D01*
X211109562Y-111500500D01*
X217555818Y-111500500D01*
X217614009Y-111519407D01*
X217625822Y-111529496D01*
X222940653Y-116844327D01*
X222952559Y-116858728D01*
X222954058Y-116860937D01*
X222954059Y-116860938D01*
X223015999Y-116952183D01*
X223021457Y-116960223D01*
X223309089Y-117383937D01*
X223319742Y-117404424D01*
X223319779Y-117404521D01*
X223319779Y-117404522D01*
X223409517Y-117534530D01*
X223409516Y-117534530D01*
X223421631Y-117545262D01*
X223429338Y-117552883D01*
X223429492Y-117553053D01*
X223431301Y-117554618D01*
X223438305Y-117560033D01*
X223527760Y-117639283D01*
X223667635Y-117712696D01*
X223821015Y-117750500D01*
X223821018Y-117750500D01*
X223978982Y-117750500D01*
X223978985Y-117750500D01*
X224132365Y-117712696D01*
X224272240Y-117639283D01*
X224390483Y-117534530D01*
X224480220Y-117404523D01*
X224536237Y-117256818D01*
X224554185Y-117109000D01*
X224555278Y-117100001D01*
X224555278Y-117099998D01*
X224536237Y-116943183D01*
X224536237Y-116943182D01*
X224480220Y-116795477D01*
X224390483Y-116665470D01*
X224325467Y-116607872D01*
X224320116Y-116602760D01*
X224316302Y-116598834D01*
X224315845Y-116598448D01*
X224307130Y-116591625D01*
X224272244Y-116560720D01*
X224272238Y-116560716D01*
X224230372Y-116538742D01*
X224220209Y-116532604D01*
X223666589Y-116151036D01*
X223666585Y-116151034D01*
X223663512Y-116148916D01*
X223663829Y-116148455D01*
X223648895Y-116136941D01*
X223641878Y-116129924D01*
X218111454Y-110599500D01*
X218111451Y-110599498D01*
X218111450Y-110599497D01*
X218111449Y-110599496D01*
X217997329Y-110533609D01*
X217997331Y-110533609D01*
X217947939Y-110520375D01*
X217870032Y-110499500D01*
X217870030Y-110499500D01*
X211109619Y-110499500D01*
X211091374Y-110497804D01*
X210422546Y-110372398D01*
X210417114Y-110371221D01*
X210328985Y-110349500D01*
X210328981Y-110349500D01*
X210303800Y-110349500D01*
X210290049Y-110348540D01*
X210287681Y-110348207D01*
X210287658Y-110348205D01*
X210287651Y-110348204D01*
X210286486Y-110348094D01*
X210285530Y-110348005D01*
X210285498Y-110348003D01*
X210262328Y-110346892D01*
X210262326Y-110346892D01*
X210258487Y-110347646D01*
X210239416Y-110349500D01*
X210171012Y-110349500D01*
X210017635Y-110387303D01*
X209877758Y-110460718D01*
X209759515Y-110565471D01*
X209669780Y-110695476D01*
X209613763Y-110843182D01*
X209613762Y-110843183D01*
X209594722Y-110999998D01*
X139181500Y-110999998D01*
X139181500Y-109499998D01*
X210344722Y-109499998D01*
X210344722Y-109500001D01*
X210363762Y-109656816D01*
X210363763Y-109656817D01*
X210419780Y-109804523D01*
X210509515Y-109934528D01*
X210509516Y-109934529D01*
X210509517Y-109934530D01*
X210627760Y-110039283D01*
X210767635Y-110112696D01*
X210921015Y-110150500D01*
X210921018Y-110150500D01*
X211078982Y-110150500D01*
X211078985Y-110150500D01*
X211167162Y-110128765D01*
X211172555Y-110127597D01*
X211494289Y-110067272D01*
X211841194Y-110002229D01*
X211841317Y-110002886D01*
X211859562Y-110000500D01*
X230977246Y-110000500D01*
X231035437Y-110019407D01*
X231047250Y-110029496D01*
X237852697Y-116834943D01*
X237865791Y-116851136D01*
X238134312Y-117265818D01*
X238207901Y-117379462D01*
X238217366Y-117398160D01*
X238219742Y-117404424D01*
X238219780Y-117404523D01*
X238253923Y-117453988D01*
X238309515Y-117534528D01*
X238309516Y-117534529D01*
X238309517Y-117534530D01*
X238427760Y-117639283D01*
X238567635Y-117712696D01*
X238721015Y-117750500D01*
X238721018Y-117750500D01*
X238878982Y-117750500D01*
X238878985Y-117750500D01*
X239032365Y-117712696D01*
X239172240Y-117639283D01*
X239290483Y-117534530D01*
X239380220Y-117404523D01*
X239436237Y-117256818D01*
X239454185Y-117109000D01*
X239455278Y-117100001D01*
X239455278Y-117099998D01*
X239436237Y-116943183D01*
X239436237Y-116943182D01*
X239380220Y-116795477D01*
X239290483Y-116665470D01*
X239234676Y-116616030D01*
X239228117Y-116609654D01*
X239220365Y-116601386D01*
X239212990Y-116596107D01*
X239204964Y-116589708D01*
X239182395Y-116569714D01*
X239172240Y-116560717D01*
X239145706Y-116546791D01*
X239134093Y-116539634D01*
X239132852Y-116538746D01*
X238583197Y-116145309D01*
X238582108Y-116144651D01*
X238580307Y-116143240D01*
X238580069Y-116143070D01*
X238580076Y-116143059D01*
X238563306Y-116129924D01*
X231532882Y-109099500D01*
X231532879Y-109099498D01*
X231532878Y-109099497D01*
X231532877Y-109099496D01*
X231418757Y-109033609D01*
X231418759Y-109033609D01*
X231369367Y-109020375D01*
X231291460Y-108999500D01*
X231291458Y-108999500D01*
X211859619Y-108999500D01*
X211841374Y-108997804D01*
X211172546Y-108872398D01*
X211167114Y-108871221D01*
X211078985Y-108849500D01*
X211078981Y-108849500D01*
X211053800Y-108849500D01*
X211040049Y-108848540D01*
X211037681Y-108848207D01*
X211037658Y-108848205D01*
X211037651Y-108848204D01*
X211036486Y-108848094D01*
X211035530Y-108848005D01*
X211035498Y-108848003D01*
X211012328Y-108846892D01*
X211012326Y-108846892D01*
X211008487Y-108847646D01*
X210989416Y-108849500D01*
X210921012Y-108849500D01*
X210767635Y-108887303D01*
X210627758Y-108960718D01*
X210509515Y-109065471D01*
X210419780Y-109195476D01*
X210363763Y-109343182D01*
X210363762Y-109343183D01*
X210344722Y-109499998D01*
X139181500Y-109499998D01*
X139181500Y-107999998D01*
X211094722Y-107999998D01*
X211094722Y-108000001D01*
X211113762Y-108156816D01*
X211113763Y-108156817D01*
X211169780Y-108304523D01*
X211259515Y-108434528D01*
X211259516Y-108434529D01*
X211259517Y-108434530D01*
X211377760Y-108539283D01*
X211517635Y-108612696D01*
X211671015Y-108650500D01*
X211671018Y-108650500D01*
X211828982Y-108650500D01*
X211828985Y-108650500D01*
X211917162Y-108628765D01*
X211922555Y-108627597D01*
X212244289Y-108567272D01*
X212591194Y-108502229D01*
X212591317Y-108502886D01*
X212609562Y-108500500D01*
X244398678Y-108500500D01*
X244456869Y-108519407D01*
X244468682Y-108529496D01*
X252794262Y-116855076D01*
X252805964Y-116869176D01*
X252808153Y-116872375D01*
X252808155Y-116872380D01*
X253165842Y-117395155D01*
X253172738Y-117408362D01*
X253173000Y-117408225D01*
X253175778Y-117413520D01*
X253175780Y-117413523D01*
X253265517Y-117543530D01*
X253277272Y-117553944D01*
X253284913Y-117561492D01*
X253285456Y-117562090D01*
X253286918Y-117563353D01*
X253294587Y-117569284D01*
X253383760Y-117648283D01*
X253523635Y-117721696D01*
X253677015Y-117759500D01*
X253677018Y-117759500D01*
X253834982Y-117759500D01*
X253834985Y-117759500D01*
X253988365Y-117721696D01*
X254128240Y-117648283D01*
X254246483Y-117543530D01*
X254336220Y-117413523D01*
X254392237Y-117265818D01*
X254411278Y-117109000D01*
X254410185Y-117100001D01*
X254392237Y-116952183D01*
X254392237Y-116952182D01*
X254336220Y-116804477D01*
X254246483Y-116674470D01*
X254246482Y-116674469D01*
X254246482Y-116674468D01*
X254179314Y-116614964D01*
X254174202Y-116610099D01*
X254171513Y-116607350D01*
X254171512Y-116607349D01*
X254171506Y-116607343D01*
X254168902Y-116605158D01*
X254163401Y-116600865D01*
X254128244Y-116569720D01*
X254128235Y-116569714D01*
X254083006Y-116545975D01*
X254073112Y-116540022D01*
X253678138Y-116269778D01*
X253519380Y-116161155D01*
X253519377Y-116161154D01*
X253516316Y-116159059D01*
X253516689Y-116158513D01*
X253502110Y-116147296D01*
X253484738Y-116129924D01*
X244954314Y-107599500D01*
X244954311Y-107599498D01*
X244954310Y-107599497D01*
X244954309Y-107599496D01*
X244840189Y-107533609D01*
X244840191Y-107533609D01*
X244790799Y-107520375D01*
X244712892Y-107499500D01*
X244712890Y-107499500D01*
X212609619Y-107499500D01*
X212591374Y-107497804D01*
X211922546Y-107372398D01*
X211917114Y-107371221D01*
X211828985Y-107349500D01*
X211828981Y-107349500D01*
X211803800Y-107349500D01*
X211790049Y-107348540D01*
X211787681Y-107348207D01*
X211787658Y-107348205D01*
X211787651Y-107348204D01*
X211786486Y-107348094D01*
X211785530Y-107348005D01*
X211785498Y-107348003D01*
X211762328Y-107346892D01*
X211762326Y-107346892D01*
X211758487Y-107347646D01*
X211739416Y-107349500D01*
X211671012Y-107349500D01*
X211517635Y-107387303D01*
X211377758Y-107460718D01*
X211259515Y-107565471D01*
X211169780Y-107695476D01*
X211113763Y-107843182D01*
X211113762Y-107843183D01*
X211094722Y-107999998D01*
X139181500Y-107999998D01*
X139181500Y-107543816D01*
X139200407Y-107485625D01*
X139249907Y-107449661D01*
X139311093Y-107449661D01*
X139360593Y-107485625D01*
X139362816Y-107488815D01*
X139395807Y-107538190D01*
X139395810Y-107538193D01*
X139461963Y-107582396D01*
X139520299Y-107593999D01*
X139520303Y-107594000D01*
X140084999Y-107594000D01*
X140085000Y-107593999D01*
X140085000Y-107081860D01*
X140127708Y-107106518D01*
X140267591Y-107144000D01*
X140412409Y-107144000D01*
X140552292Y-107106518D01*
X140595000Y-107081860D01*
X140595000Y-107593999D01*
X140595001Y-107594000D01*
X141159697Y-107594000D01*
X141159700Y-107593999D01*
X141218036Y-107582396D01*
X141284189Y-107538193D01*
X141284193Y-107538189D01*
X141328396Y-107472036D01*
X141339999Y-107413700D01*
X141340000Y-107413697D01*
X141340000Y-106849001D01*
X141339999Y-106849000D01*
X140827861Y-106849000D01*
X140852518Y-106806292D01*
X140890000Y-106666409D01*
X140890000Y-106593996D01*
X141824417Y-106593996D01*
X141824417Y-106594003D01*
X141844698Y-106799929D01*
X141844699Y-106799934D01*
X141904768Y-106997954D01*
X142002316Y-107180452D01*
X142133585Y-107340404D01*
X142133590Y-107340410D01*
X142144666Y-107349500D01*
X142293547Y-107471683D01*
X142293548Y-107471683D01*
X142293550Y-107471685D01*
X142476046Y-107569232D01*
X142613997Y-107611078D01*
X142674065Y-107629300D01*
X142674070Y-107629301D01*
X142879997Y-107649583D01*
X142880000Y-107649583D01*
X142880003Y-107649583D01*
X143085929Y-107629301D01*
X143085934Y-107629300D01*
X143283954Y-107569232D01*
X143466450Y-107471685D01*
X143626410Y-107340410D01*
X143757685Y-107180450D01*
X143855232Y-106997954D01*
X143915300Y-106799934D01*
X143915301Y-106799929D01*
X143935583Y-106594003D01*
X143935583Y-106593996D01*
X144364417Y-106593996D01*
X144364417Y-106594003D01*
X144384698Y-106799929D01*
X144384699Y-106799934D01*
X144444768Y-106997954D01*
X144542316Y-107180452D01*
X144673585Y-107340404D01*
X144673590Y-107340410D01*
X144684666Y-107349500D01*
X144833547Y-107471683D01*
X144833548Y-107471683D01*
X144833550Y-107471685D01*
X145016046Y-107569232D01*
X145153997Y-107611078D01*
X145214065Y-107629300D01*
X145214070Y-107629301D01*
X145419997Y-107649583D01*
X145420000Y-107649583D01*
X145420003Y-107649583D01*
X145625929Y-107629301D01*
X145625934Y-107629300D01*
X145823954Y-107569232D01*
X146006450Y-107471685D01*
X146166410Y-107340410D01*
X146297685Y-107180450D01*
X146395232Y-106997954D01*
X146455300Y-106799934D01*
X146455301Y-106799929D01*
X146475583Y-106594003D01*
X146475583Y-106593996D01*
X146904417Y-106593996D01*
X146904417Y-106594003D01*
X146924698Y-106799929D01*
X146924699Y-106799934D01*
X146984768Y-106997954D01*
X147082316Y-107180452D01*
X147213585Y-107340404D01*
X147213590Y-107340410D01*
X147224666Y-107349500D01*
X147373547Y-107471683D01*
X147373548Y-107471683D01*
X147373550Y-107471685D01*
X147556046Y-107569232D01*
X147693997Y-107611078D01*
X147754065Y-107629300D01*
X147754070Y-107629301D01*
X147959997Y-107649583D01*
X147960000Y-107649583D01*
X147960003Y-107649583D01*
X148165929Y-107629301D01*
X148165934Y-107629300D01*
X148363954Y-107569232D01*
X148546450Y-107471685D01*
X148706410Y-107340410D01*
X148837685Y-107180450D01*
X148935232Y-106997954D01*
X148995300Y-106799934D01*
X148995301Y-106799929D01*
X149015583Y-106594003D01*
X149015583Y-106593996D01*
X149444417Y-106593996D01*
X149444417Y-106594003D01*
X149464698Y-106799929D01*
X149464699Y-106799934D01*
X149524768Y-106997954D01*
X149622316Y-107180452D01*
X149753585Y-107340404D01*
X149753590Y-107340410D01*
X149764666Y-107349500D01*
X149913547Y-107471683D01*
X149913548Y-107471683D01*
X149913550Y-107471685D01*
X150096046Y-107569232D01*
X150233997Y-107611078D01*
X150294065Y-107629300D01*
X150294070Y-107629301D01*
X150499997Y-107649583D01*
X150500000Y-107649583D01*
X150500003Y-107649583D01*
X150705929Y-107629301D01*
X150705934Y-107629300D01*
X150903954Y-107569232D01*
X151086450Y-107471685D01*
X151246410Y-107340410D01*
X151377685Y-107180450D01*
X151475232Y-106997954D01*
X151535300Y-106799934D01*
X151535301Y-106799929D01*
X151555583Y-106594003D01*
X151555583Y-106593996D01*
X151984417Y-106593996D01*
X151984417Y-106594003D01*
X152004698Y-106799929D01*
X152004699Y-106799934D01*
X152064768Y-106997954D01*
X152162316Y-107180452D01*
X152293585Y-107340404D01*
X152293590Y-107340410D01*
X152304666Y-107349500D01*
X152453547Y-107471683D01*
X152453548Y-107471683D01*
X152453550Y-107471685D01*
X152636046Y-107569232D01*
X152773997Y-107611078D01*
X152834065Y-107629300D01*
X152834070Y-107629301D01*
X153039997Y-107649583D01*
X153040000Y-107649583D01*
X153040003Y-107649583D01*
X153245929Y-107629301D01*
X153245934Y-107629300D01*
X153443954Y-107569232D01*
X153626450Y-107471685D01*
X153786410Y-107340410D01*
X153917685Y-107180450D01*
X154015232Y-106997954D01*
X154075300Y-106799934D01*
X154075301Y-106799929D01*
X154095583Y-106594003D01*
X154095583Y-106593996D01*
X154524417Y-106593996D01*
X154524417Y-106594003D01*
X154544698Y-106799929D01*
X154544699Y-106799934D01*
X154604768Y-106997954D01*
X154702316Y-107180452D01*
X154833585Y-107340404D01*
X154833590Y-107340410D01*
X154844666Y-107349500D01*
X154993547Y-107471683D01*
X154993548Y-107471683D01*
X154993550Y-107471685D01*
X155176046Y-107569232D01*
X155313997Y-107611078D01*
X155374065Y-107629300D01*
X155374070Y-107629301D01*
X155579997Y-107649583D01*
X155580000Y-107649583D01*
X155580003Y-107649583D01*
X155785929Y-107629301D01*
X155785934Y-107629300D01*
X155983954Y-107569232D01*
X156166450Y-107471685D01*
X156326410Y-107340410D01*
X156457685Y-107180450D01*
X156555232Y-106997954D01*
X156615300Y-106799934D01*
X156615301Y-106799929D01*
X156635583Y-106594003D01*
X156635583Y-106593996D01*
X157064417Y-106593996D01*
X157064417Y-106594003D01*
X157084698Y-106799929D01*
X157084699Y-106799934D01*
X157144768Y-106997954D01*
X157242316Y-107180452D01*
X157373585Y-107340404D01*
X157373590Y-107340410D01*
X157384666Y-107349500D01*
X157533547Y-107471683D01*
X157533548Y-107471683D01*
X157533550Y-107471685D01*
X157716046Y-107569232D01*
X157853997Y-107611078D01*
X157914065Y-107629300D01*
X157914070Y-107629301D01*
X158119997Y-107649583D01*
X158120000Y-107649583D01*
X158120003Y-107649583D01*
X158325929Y-107629301D01*
X158325934Y-107629300D01*
X158523954Y-107569232D01*
X158706450Y-107471685D01*
X158866410Y-107340410D01*
X158997685Y-107180450D01*
X159095232Y-106997954D01*
X159155300Y-106799934D01*
X159155301Y-106799929D01*
X159175583Y-106594003D01*
X159175583Y-106593996D01*
X159604417Y-106593996D01*
X159604417Y-106594003D01*
X159624698Y-106799929D01*
X159624699Y-106799934D01*
X159684768Y-106997954D01*
X159782316Y-107180452D01*
X159913585Y-107340404D01*
X159913590Y-107340410D01*
X159924666Y-107349500D01*
X160073547Y-107471683D01*
X160073548Y-107471683D01*
X160073550Y-107471685D01*
X160256046Y-107569232D01*
X160393997Y-107611078D01*
X160454065Y-107629300D01*
X160454070Y-107629301D01*
X160659997Y-107649583D01*
X160660000Y-107649583D01*
X160660003Y-107649583D01*
X160865929Y-107629301D01*
X160865934Y-107629300D01*
X161063954Y-107569232D01*
X161246450Y-107471685D01*
X161406410Y-107340410D01*
X161537685Y-107180450D01*
X161635232Y-106997954D01*
X161695300Y-106799934D01*
X161695301Y-106799929D01*
X161715583Y-106594003D01*
X161715583Y-106593996D01*
X162144417Y-106593996D01*
X162144417Y-106594003D01*
X162164698Y-106799929D01*
X162164699Y-106799934D01*
X162224768Y-106997954D01*
X162322316Y-107180452D01*
X162453585Y-107340404D01*
X162453590Y-107340410D01*
X162464666Y-107349500D01*
X162613547Y-107471683D01*
X162613548Y-107471683D01*
X162613550Y-107471685D01*
X162796046Y-107569232D01*
X162933997Y-107611078D01*
X162994065Y-107629300D01*
X162994070Y-107629301D01*
X163199997Y-107649583D01*
X163200000Y-107649583D01*
X163200003Y-107649583D01*
X163405929Y-107629301D01*
X163405934Y-107629300D01*
X163603954Y-107569232D01*
X163786450Y-107471685D01*
X163946410Y-107340410D01*
X164077685Y-107180450D01*
X164175232Y-106997954D01*
X164235300Y-106799934D01*
X164235301Y-106799929D01*
X164255583Y-106594003D01*
X164255583Y-106593996D01*
X164684417Y-106593996D01*
X164684417Y-106594003D01*
X164704698Y-106799929D01*
X164704699Y-106799934D01*
X164764768Y-106997954D01*
X164862316Y-107180452D01*
X164993585Y-107340404D01*
X164993590Y-107340410D01*
X165004666Y-107349500D01*
X165153547Y-107471683D01*
X165153548Y-107471683D01*
X165153550Y-107471685D01*
X165336046Y-107569232D01*
X165473997Y-107611078D01*
X165534065Y-107629300D01*
X165534070Y-107629301D01*
X165739997Y-107649583D01*
X165740000Y-107649583D01*
X165740003Y-107649583D01*
X165945929Y-107629301D01*
X165945934Y-107629300D01*
X166143954Y-107569232D01*
X166326450Y-107471685D01*
X166486410Y-107340410D01*
X166617685Y-107180450D01*
X166715232Y-106997954D01*
X166775300Y-106799934D01*
X166775301Y-106799929D01*
X166795583Y-106594003D01*
X166795583Y-106593996D01*
X167224417Y-106593996D01*
X167224417Y-106594003D01*
X167244698Y-106799929D01*
X167244699Y-106799934D01*
X167304768Y-106997954D01*
X167402316Y-107180452D01*
X167533585Y-107340404D01*
X167533590Y-107340410D01*
X167544666Y-107349500D01*
X167693547Y-107471683D01*
X167693548Y-107471683D01*
X167693550Y-107471685D01*
X167876046Y-107569232D01*
X168013997Y-107611078D01*
X168074065Y-107629300D01*
X168074070Y-107629301D01*
X168279997Y-107649583D01*
X168280000Y-107649583D01*
X168280003Y-107649583D01*
X168485929Y-107629301D01*
X168485934Y-107629300D01*
X168683954Y-107569232D01*
X168866450Y-107471685D01*
X169026410Y-107340410D01*
X169157685Y-107180450D01*
X169255232Y-106997954D01*
X169315300Y-106799934D01*
X169315301Y-106799929D01*
X169335583Y-106594003D01*
X169335583Y-106593996D01*
X169764417Y-106593996D01*
X169764417Y-106594003D01*
X169784698Y-106799929D01*
X169784699Y-106799934D01*
X169844768Y-106997954D01*
X169942316Y-107180452D01*
X170073585Y-107340404D01*
X170073590Y-107340410D01*
X170084666Y-107349500D01*
X170233547Y-107471683D01*
X170233548Y-107471683D01*
X170233550Y-107471685D01*
X170416046Y-107569232D01*
X170553997Y-107611078D01*
X170614065Y-107629300D01*
X170614070Y-107629301D01*
X170819997Y-107649583D01*
X170820000Y-107649583D01*
X170820003Y-107649583D01*
X171025929Y-107629301D01*
X171025934Y-107629300D01*
X171223954Y-107569232D01*
X171406450Y-107471685D01*
X171566410Y-107340410D01*
X171697685Y-107180450D01*
X171795232Y-106997954D01*
X171855300Y-106799934D01*
X171855301Y-106799929D01*
X171875583Y-106594003D01*
X171875583Y-106593996D01*
X172304417Y-106593996D01*
X172304417Y-106594003D01*
X172324698Y-106799929D01*
X172324699Y-106799934D01*
X172384768Y-106997954D01*
X172482316Y-107180452D01*
X172613585Y-107340404D01*
X172613590Y-107340410D01*
X172624666Y-107349500D01*
X172773547Y-107471683D01*
X172773548Y-107471683D01*
X172773550Y-107471685D01*
X172956046Y-107569232D01*
X173093997Y-107611078D01*
X173154065Y-107629300D01*
X173154070Y-107629301D01*
X173359997Y-107649583D01*
X173360000Y-107649583D01*
X173360003Y-107649583D01*
X173565929Y-107629301D01*
X173565934Y-107629300D01*
X173763954Y-107569232D01*
X173946450Y-107471685D01*
X174106410Y-107340410D01*
X174237685Y-107180450D01*
X174335232Y-106997954D01*
X174395300Y-106799934D01*
X174395301Y-106799929D01*
X174415583Y-106594003D01*
X174415583Y-106593996D01*
X174844417Y-106593996D01*
X174844417Y-106594003D01*
X174864698Y-106799929D01*
X174864699Y-106799934D01*
X174924768Y-106997954D01*
X175022316Y-107180452D01*
X175153585Y-107340404D01*
X175153590Y-107340410D01*
X175164666Y-107349500D01*
X175313547Y-107471683D01*
X175313548Y-107471683D01*
X175313550Y-107471685D01*
X175496046Y-107569232D01*
X175633997Y-107611078D01*
X175694065Y-107629300D01*
X175694070Y-107629301D01*
X175899997Y-107649583D01*
X175900000Y-107649583D01*
X175900003Y-107649583D01*
X176105929Y-107629301D01*
X176105934Y-107629300D01*
X176303954Y-107569232D01*
X176486450Y-107471685D01*
X176646410Y-107340410D01*
X176777685Y-107180450D01*
X176875232Y-106997954D01*
X176935300Y-106799934D01*
X176935301Y-106799929D01*
X176955583Y-106594003D01*
X176955583Y-106593996D01*
X177384417Y-106593996D01*
X177384417Y-106594003D01*
X177404698Y-106799929D01*
X177404699Y-106799934D01*
X177464768Y-106997954D01*
X177562316Y-107180452D01*
X177693585Y-107340404D01*
X177693590Y-107340410D01*
X177704666Y-107349500D01*
X177853547Y-107471683D01*
X177853548Y-107471683D01*
X177853550Y-107471685D01*
X178036046Y-107569232D01*
X178173997Y-107611078D01*
X178234065Y-107629300D01*
X178234070Y-107629301D01*
X178439997Y-107649583D01*
X178440000Y-107649583D01*
X178440003Y-107649583D01*
X178645929Y-107629301D01*
X178645934Y-107629300D01*
X178843954Y-107569232D01*
X179026450Y-107471685D01*
X179186410Y-107340410D01*
X179317685Y-107180450D01*
X179415232Y-106997954D01*
X179475300Y-106799934D01*
X179475301Y-106799929D01*
X179495583Y-106594003D01*
X179495583Y-106593996D01*
X179924417Y-106593996D01*
X179924417Y-106594003D01*
X179944698Y-106799929D01*
X179944699Y-106799934D01*
X180004768Y-106997954D01*
X180102316Y-107180452D01*
X180233585Y-107340404D01*
X180233590Y-107340410D01*
X180244666Y-107349500D01*
X180393547Y-107471683D01*
X180393548Y-107471683D01*
X180393550Y-107471685D01*
X180576046Y-107569232D01*
X180713997Y-107611078D01*
X180774065Y-107629300D01*
X180774070Y-107629301D01*
X180979997Y-107649583D01*
X180980000Y-107649583D01*
X180980003Y-107649583D01*
X181185929Y-107629301D01*
X181185934Y-107629300D01*
X181383954Y-107569232D01*
X181566450Y-107471685D01*
X181726410Y-107340410D01*
X181857685Y-107180450D01*
X181955232Y-106997954D01*
X182015300Y-106799934D01*
X182015301Y-106799929D01*
X182035583Y-106594003D01*
X182035583Y-106593996D01*
X182464417Y-106593996D01*
X182464417Y-106594003D01*
X182484698Y-106799929D01*
X182484699Y-106799934D01*
X182544768Y-106997954D01*
X182642316Y-107180452D01*
X182773585Y-107340404D01*
X182773590Y-107340410D01*
X182784666Y-107349500D01*
X182933547Y-107471683D01*
X182933548Y-107471683D01*
X182933550Y-107471685D01*
X183116046Y-107569232D01*
X183253997Y-107611078D01*
X183314065Y-107629300D01*
X183314070Y-107629301D01*
X183519997Y-107649583D01*
X183520000Y-107649583D01*
X183520003Y-107649583D01*
X183725929Y-107629301D01*
X183725934Y-107629300D01*
X183923954Y-107569232D01*
X184106450Y-107471685D01*
X184266410Y-107340410D01*
X184397685Y-107180450D01*
X184495232Y-106997954D01*
X184555300Y-106799934D01*
X184555301Y-106799929D01*
X184575583Y-106594003D01*
X184575583Y-106593996D01*
X185004417Y-106593996D01*
X185004417Y-106594003D01*
X185024698Y-106799929D01*
X185024699Y-106799934D01*
X185084768Y-106997954D01*
X185182316Y-107180452D01*
X185313585Y-107340404D01*
X185313590Y-107340410D01*
X185324666Y-107349500D01*
X185473547Y-107471683D01*
X185473548Y-107471683D01*
X185473550Y-107471685D01*
X185656046Y-107569232D01*
X185793997Y-107611078D01*
X185854065Y-107629300D01*
X185854070Y-107629301D01*
X186059997Y-107649583D01*
X186060000Y-107649583D01*
X186060003Y-107649583D01*
X186265929Y-107629301D01*
X186265934Y-107629300D01*
X186463954Y-107569232D01*
X186646450Y-107471685D01*
X186806410Y-107340410D01*
X186937685Y-107180450D01*
X187035232Y-106997954D01*
X187095300Y-106799934D01*
X187095301Y-106799929D01*
X187115583Y-106594003D01*
X187115583Y-106593996D01*
X187544417Y-106593996D01*
X187544417Y-106594003D01*
X187564698Y-106799929D01*
X187564699Y-106799934D01*
X187624768Y-106997954D01*
X187722316Y-107180452D01*
X187853585Y-107340404D01*
X187853590Y-107340410D01*
X187864666Y-107349500D01*
X188013547Y-107471683D01*
X188013548Y-107471683D01*
X188013550Y-107471685D01*
X188196046Y-107569232D01*
X188333997Y-107611078D01*
X188394065Y-107629300D01*
X188394070Y-107629301D01*
X188599997Y-107649583D01*
X188600000Y-107649583D01*
X188600003Y-107649583D01*
X188805929Y-107629301D01*
X188805934Y-107629300D01*
X189003954Y-107569232D01*
X189186450Y-107471685D01*
X189346410Y-107340410D01*
X189477685Y-107180450D01*
X189575232Y-106997954D01*
X189635300Y-106799934D01*
X189635301Y-106799929D01*
X189655583Y-106594003D01*
X189655583Y-106593996D01*
X190084417Y-106593996D01*
X190084417Y-106594003D01*
X190104698Y-106799929D01*
X190104699Y-106799934D01*
X190164768Y-106997954D01*
X190262316Y-107180452D01*
X190393585Y-107340404D01*
X190393590Y-107340410D01*
X190404666Y-107349500D01*
X190553547Y-107471683D01*
X190553548Y-107471683D01*
X190553550Y-107471685D01*
X190736046Y-107569232D01*
X190873997Y-107611078D01*
X190934065Y-107629300D01*
X190934070Y-107629301D01*
X191139997Y-107649583D01*
X191140000Y-107649583D01*
X191140003Y-107649583D01*
X191345929Y-107629301D01*
X191345934Y-107629300D01*
X191543954Y-107569232D01*
X191726450Y-107471685D01*
X191886410Y-107340410D01*
X192017685Y-107180450D01*
X192115232Y-106997954D01*
X192175300Y-106799934D01*
X192175301Y-106799929D01*
X192195583Y-106594003D01*
X192195583Y-106593996D01*
X192624417Y-106593996D01*
X192624417Y-106594003D01*
X192644698Y-106799929D01*
X192644699Y-106799934D01*
X192704768Y-106997954D01*
X192802316Y-107180452D01*
X192933585Y-107340404D01*
X192933590Y-107340410D01*
X192944666Y-107349500D01*
X193093547Y-107471683D01*
X193093548Y-107471683D01*
X193093550Y-107471685D01*
X193276046Y-107569232D01*
X193413997Y-107611078D01*
X193474065Y-107629300D01*
X193474070Y-107629301D01*
X193679997Y-107649583D01*
X193680000Y-107649583D01*
X193680003Y-107649583D01*
X193885929Y-107629301D01*
X193885934Y-107629300D01*
X194083954Y-107569232D01*
X194266450Y-107471685D01*
X194426410Y-107340410D01*
X194557685Y-107180450D01*
X194655232Y-106997954D01*
X194715300Y-106799934D01*
X194715301Y-106799929D01*
X194735583Y-106594003D01*
X194735583Y-106593996D01*
X195164417Y-106593996D01*
X195164417Y-106594003D01*
X195184698Y-106799929D01*
X195184699Y-106799934D01*
X195244768Y-106997954D01*
X195342316Y-107180452D01*
X195473585Y-107340404D01*
X195473590Y-107340410D01*
X195484666Y-107349500D01*
X195633547Y-107471683D01*
X195633548Y-107471683D01*
X195633550Y-107471685D01*
X195816046Y-107569232D01*
X195953997Y-107611078D01*
X196014065Y-107629300D01*
X196014070Y-107629301D01*
X196219997Y-107649583D01*
X196220000Y-107649583D01*
X196220003Y-107649583D01*
X196425929Y-107629301D01*
X196425934Y-107629300D01*
X196623954Y-107569232D01*
X196806450Y-107471685D01*
X196966410Y-107340410D01*
X197097685Y-107180450D01*
X197195232Y-106997954D01*
X197255300Y-106799934D01*
X197255301Y-106799929D01*
X197275583Y-106594003D01*
X197275583Y-106593996D01*
X197704417Y-106593996D01*
X197704417Y-106594003D01*
X197724698Y-106799929D01*
X197724699Y-106799934D01*
X197784768Y-106997954D01*
X197882316Y-107180452D01*
X198013585Y-107340404D01*
X198013590Y-107340410D01*
X198024666Y-107349500D01*
X198173547Y-107471683D01*
X198173548Y-107471683D01*
X198173550Y-107471685D01*
X198356046Y-107569232D01*
X198493997Y-107611078D01*
X198554065Y-107629300D01*
X198554070Y-107629301D01*
X198759997Y-107649583D01*
X198760000Y-107649583D01*
X198760003Y-107649583D01*
X198965929Y-107629301D01*
X198965934Y-107629300D01*
X199163954Y-107569232D01*
X199346450Y-107471685D01*
X199506410Y-107340410D01*
X199637685Y-107180450D01*
X199735232Y-106997954D01*
X199795300Y-106799934D01*
X199795301Y-106799929D01*
X199815583Y-106594003D01*
X199815583Y-106593996D01*
X199795301Y-106388070D01*
X199795300Y-106388065D01*
X199755327Y-106256292D01*
X199735232Y-106190046D01*
X199637685Y-106007550D01*
X199506410Y-105847590D01*
X199417108Y-105774302D01*
X199346452Y-105716316D01*
X199163954Y-105618768D01*
X198965934Y-105558699D01*
X198965929Y-105558698D01*
X198760003Y-105538417D01*
X198759997Y-105538417D01*
X198554070Y-105558698D01*
X198554065Y-105558699D01*
X198356045Y-105618768D01*
X198173547Y-105716316D01*
X198013595Y-105847585D01*
X198013585Y-105847595D01*
X197882316Y-106007547D01*
X197784768Y-106190045D01*
X197724699Y-106388065D01*
X197724698Y-106388070D01*
X197704417Y-106593996D01*
X197275583Y-106593996D01*
X197255301Y-106388070D01*
X197255300Y-106388065D01*
X197215327Y-106256292D01*
X197195232Y-106190046D01*
X197097685Y-106007550D01*
X196966410Y-105847590D01*
X196877108Y-105774302D01*
X196806452Y-105716316D01*
X196623954Y-105618768D01*
X196425934Y-105558699D01*
X196425929Y-105558698D01*
X196220003Y-105538417D01*
X196219997Y-105538417D01*
X196014070Y-105558698D01*
X196014065Y-105558699D01*
X195816045Y-105618768D01*
X195633547Y-105716316D01*
X195473595Y-105847585D01*
X195473585Y-105847595D01*
X195342316Y-106007547D01*
X195244768Y-106190045D01*
X195184699Y-106388065D01*
X195184698Y-106388070D01*
X195164417Y-106593996D01*
X194735583Y-106593996D01*
X194715301Y-106388070D01*
X194715300Y-106388065D01*
X194675327Y-106256292D01*
X194655232Y-106190046D01*
X194557685Y-106007550D01*
X194426410Y-105847590D01*
X194337108Y-105774302D01*
X194266452Y-105716316D01*
X194083954Y-105618768D01*
X193885934Y-105558699D01*
X193885929Y-105558698D01*
X193680003Y-105538417D01*
X193679997Y-105538417D01*
X193474070Y-105558698D01*
X193474065Y-105558699D01*
X193276045Y-105618768D01*
X193093547Y-105716316D01*
X192933595Y-105847585D01*
X192933585Y-105847595D01*
X192802316Y-106007547D01*
X192704768Y-106190045D01*
X192644699Y-106388065D01*
X192644698Y-106388070D01*
X192624417Y-106593996D01*
X192195583Y-106593996D01*
X192175301Y-106388070D01*
X192175300Y-106388065D01*
X192135327Y-106256292D01*
X192115232Y-106190046D01*
X192017685Y-106007550D01*
X191886410Y-105847590D01*
X191797108Y-105774302D01*
X191726452Y-105716316D01*
X191543954Y-105618768D01*
X191345934Y-105558699D01*
X191345929Y-105558698D01*
X191140003Y-105538417D01*
X191139997Y-105538417D01*
X190934070Y-105558698D01*
X190934065Y-105558699D01*
X190736045Y-105618768D01*
X190553547Y-105716316D01*
X190393595Y-105847585D01*
X190393585Y-105847595D01*
X190262316Y-106007547D01*
X190164768Y-106190045D01*
X190104699Y-106388065D01*
X190104698Y-106388070D01*
X190084417Y-106593996D01*
X189655583Y-106593996D01*
X189635301Y-106388070D01*
X189635300Y-106388065D01*
X189595327Y-106256292D01*
X189575232Y-106190046D01*
X189477685Y-106007550D01*
X189346410Y-105847590D01*
X189257108Y-105774302D01*
X189186452Y-105716316D01*
X189003954Y-105618768D01*
X188805934Y-105558699D01*
X188805929Y-105558698D01*
X188600003Y-105538417D01*
X188599997Y-105538417D01*
X188394070Y-105558698D01*
X188394065Y-105558699D01*
X188196045Y-105618768D01*
X188013547Y-105716316D01*
X187853595Y-105847585D01*
X187853585Y-105847595D01*
X187722316Y-106007547D01*
X187624768Y-106190045D01*
X187564699Y-106388065D01*
X187564698Y-106388070D01*
X187544417Y-106593996D01*
X187115583Y-106593996D01*
X187095301Y-106388070D01*
X187095300Y-106388065D01*
X187055327Y-106256292D01*
X187035232Y-106190046D01*
X186937685Y-106007550D01*
X186806410Y-105847590D01*
X186717108Y-105774302D01*
X186646452Y-105716316D01*
X186463954Y-105618768D01*
X186265934Y-105558699D01*
X186265929Y-105558698D01*
X186060003Y-105538417D01*
X186059997Y-105538417D01*
X185854070Y-105558698D01*
X185854065Y-105558699D01*
X185656045Y-105618768D01*
X185473547Y-105716316D01*
X185313595Y-105847585D01*
X185313585Y-105847595D01*
X185182316Y-106007547D01*
X185084768Y-106190045D01*
X185024699Y-106388065D01*
X185024698Y-106388070D01*
X185004417Y-106593996D01*
X184575583Y-106593996D01*
X184555301Y-106388070D01*
X184555300Y-106388065D01*
X184515327Y-106256292D01*
X184495232Y-106190046D01*
X184397685Y-106007550D01*
X184266410Y-105847590D01*
X184177108Y-105774302D01*
X184106452Y-105716316D01*
X183923954Y-105618768D01*
X183725934Y-105558699D01*
X183725929Y-105558698D01*
X183520003Y-105538417D01*
X183519997Y-105538417D01*
X183314070Y-105558698D01*
X183314065Y-105558699D01*
X183116045Y-105618768D01*
X182933547Y-105716316D01*
X182773595Y-105847585D01*
X182773585Y-105847595D01*
X182642316Y-106007547D01*
X182544768Y-106190045D01*
X182484699Y-106388065D01*
X182484698Y-106388070D01*
X182464417Y-106593996D01*
X182035583Y-106593996D01*
X182015301Y-106388070D01*
X182015300Y-106388065D01*
X181975327Y-106256292D01*
X181955232Y-106190046D01*
X181857685Y-106007550D01*
X181726410Y-105847590D01*
X181637108Y-105774302D01*
X181566452Y-105716316D01*
X181383954Y-105618768D01*
X181185934Y-105558699D01*
X181185929Y-105558698D01*
X180980003Y-105538417D01*
X180979997Y-105538417D01*
X180774070Y-105558698D01*
X180774065Y-105558699D01*
X180576045Y-105618768D01*
X180393547Y-105716316D01*
X180233595Y-105847585D01*
X180233585Y-105847595D01*
X180102316Y-106007547D01*
X180004768Y-106190045D01*
X179944699Y-106388065D01*
X179944698Y-106388070D01*
X179924417Y-106593996D01*
X179495583Y-106593996D01*
X179475301Y-106388070D01*
X179475300Y-106388065D01*
X179435327Y-106256292D01*
X179415232Y-106190046D01*
X179317685Y-106007550D01*
X179186410Y-105847590D01*
X179097108Y-105774302D01*
X179026452Y-105716316D01*
X178843954Y-105618768D01*
X178645934Y-105558699D01*
X178645929Y-105558698D01*
X178440003Y-105538417D01*
X178439997Y-105538417D01*
X178234070Y-105558698D01*
X178234065Y-105558699D01*
X178036045Y-105618768D01*
X177853547Y-105716316D01*
X177693595Y-105847585D01*
X177693585Y-105847595D01*
X177562316Y-106007547D01*
X177464768Y-106190045D01*
X177404699Y-106388065D01*
X177404698Y-106388070D01*
X177384417Y-106593996D01*
X176955583Y-106593996D01*
X176935301Y-106388070D01*
X176935300Y-106388065D01*
X176895327Y-106256292D01*
X176875232Y-106190046D01*
X176777685Y-106007550D01*
X176646410Y-105847590D01*
X176557108Y-105774302D01*
X176486452Y-105716316D01*
X176303954Y-105618768D01*
X176105934Y-105558699D01*
X176105929Y-105558698D01*
X175900003Y-105538417D01*
X175899997Y-105538417D01*
X175694070Y-105558698D01*
X175694065Y-105558699D01*
X175496045Y-105618768D01*
X175313547Y-105716316D01*
X175153595Y-105847585D01*
X175153585Y-105847595D01*
X175022316Y-106007547D01*
X174924768Y-106190045D01*
X174864699Y-106388065D01*
X174864698Y-106388070D01*
X174844417Y-106593996D01*
X174415583Y-106593996D01*
X174395301Y-106388070D01*
X174395300Y-106388065D01*
X174355327Y-106256292D01*
X174335232Y-106190046D01*
X174237685Y-106007550D01*
X174106410Y-105847590D01*
X174017108Y-105774302D01*
X173946452Y-105716316D01*
X173763954Y-105618768D01*
X173565934Y-105558699D01*
X173565929Y-105558698D01*
X173360003Y-105538417D01*
X173359997Y-105538417D01*
X173154070Y-105558698D01*
X173154065Y-105558699D01*
X172956045Y-105618768D01*
X172773547Y-105716316D01*
X172613595Y-105847585D01*
X172613585Y-105847595D01*
X172482316Y-106007547D01*
X172384768Y-106190045D01*
X172324699Y-106388065D01*
X172324698Y-106388070D01*
X172304417Y-106593996D01*
X171875583Y-106593996D01*
X171855301Y-106388070D01*
X171855300Y-106388065D01*
X171815327Y-106256292D01*
X171795232Y-106190046D01*
X171697685Y-106007550D01*
X171566410Y-105847590D01*
X171477108Y-105774302D01*
X171406452Y-105716316D01*
X171223954Y-105618768D01*
X171025934Y-105558699D01*
X171025929Y-105558698D01*
X170820003Y-105538417D01*
X170819997Y-105538417D01*
X170614070Y-105558698D01*
X170614065Y-105558699D01*
X170416045Y-105618768D01*
X170233547Y-105716316D01*
X170073595Y-105847585D01*
X170073585Y-105847595D01*
X169942316Y-106007547D01*
X169844768Y-106190045D01*
X169784699Y-106388065D01*
X169784698Y-106388070D01*
X169764417Y-106593996D01*
X169335583Y-106593996D01*
X169315301Y-106388070D01*
X169315300Y-106388065D01*
X169275327Y-106256292D01*
X169255232Y-106190046D01*
X169157685Y-106007550D01*
X169026410Y-105847590D01*
X168937108Y-105774302D01*
X168866452Y-105716316D01*
X168683954Y-105618768D01*
X168485934Y-105558699D01*
X168485929Y-105558698D01*
X168280003Y-105538417D01*
X168279997Y-105538417D01*
X168074070Y-105558698D01*
X168074065Y-105558699D01*
X167876045Y-105618768D01*
X167693547Y-105716316D01*
X167533595Y-105847585D01*
X167533585Y-105847595D01*
X167402316Y-106007547D01*
X167304768Y-106190045D01*
X167244699Y-106388065D01*
X167244698Y-106388070D01*
X167224417Y-106593996D01*
X166795583Y-106593996D01*
X166775301Y-106388070D01*
X166775300Y-106388065D01*
X166735327Y-106256292D01*
X166715232Y-106190046D01*
X166617685Y-106007550D01*
X166486410Y-105847590D01*
X166397108Y-105774302D01*
X166326452Y-105716316D01*
X166143954Y-105618768D01*
X165945934Y-105558699D01*
X165945929Y-105558698D01*
X165740003Y-105538417D01*
X165739997Y-105538417D01*
X165534070Y-105558698D01*
X165534065Y-105558699D01*
X165336045Y-105618768D01*
X165153547Y-105716316D01*
X164993595Y-105847585D01*
X164993585Y-105847595D01*
X164862316Y-106007547D01*
X164764768Y-106190045D01*
X164704699Y-106388065D01*
X164704698Y-106388070D01*
X164684417Y-106593996D01*
X164255583Y-106593996D01*
X164235301Y-106388070D01*
X164235300Y-106388065D01*
X164195327Y-106256292D01*
X164175232Y-106190046D01*
X164077685Y-106007550D01*
X163946410Y-105847590D01*
X163857108Y-105774302D01*
X163786452Y-105716316D01*
X163603954Y-105618768D01*
X163405934Y-105558699D01*
X163405929Y-105558698D01*
X163200003Y-105538417D01*
X163199997Y-105538417D01*
X162994070Y-105558698D01*
X162994065Y-105558699D01*
X162796045Y-105618768D01*
X162613547Y-105716316D01*
X162453595Y-105847585D01*
X162453585Y-105847595D01*
X162322316Y-106007547D01*
X162224768Y-106190045D01*
X162164699Y-106388065D01*
X162164698Y-106388070D01*
X162144417Y-106593996D01*
X161715583Y-106593996D01*
X161695301Y-106388070D01*
X161695300Y-106388065D01*
X161655327Y-106256292D01*
X161635232Y-106190046D01*
X161537685Y-106007550D01*
X161406410Y-105847590D01*
X161317108Y-105774302D01*
X161246452Y-105716316D01*
X161063954Y-105618768D01*
X160865934Y-105558699D01*
X160865929Y-105558698D01*
X160660003Y-105538417D01*
X160659997Y-105538417D01*
X160454070Y-105558698D01*
X160454065Y-105558699D01*
X160256045Y-105618768D01*
X160073547Y-105716316D01*
X159913595Y-105847585D01*
X159913585Y-105847595D01*
X159782316Y-106007547D01*
X159684768Y-106190045D01*
X159624699Y-106388065D01*
X159624698Y-106388070D01*
X159604417Y-106593996D01*
X159175583Y-106593996D01*
X159155301Y-106388070D01*
X159155300Y-106388065D01*
X159115327Y-106256292D01*
X159095232Y-106190046D01*
X158997685Y-106007550D01*
X158866410Y-105847590D01*
X158777108Y-105774302D01*
X158706452Y-105716316D01*
X158523954Y-105618768D01*
X158325934Y-105558699D01*
X158325929Y-105558698D01*
X158120003Y-105538417D01*
X158119997Y-105538417D01*
X157914070Y-105558698D01*
X157914065Y-105558699D01*
X157716045Y-105618768D01*
X157533547Y-105716316D01*
X157373595Y-105847585D01*
X157373585Y-105847595D01*
X157242316Y-106007547D01*
X157144768Y-106190045D01*
X157084699Y-106388065D01*
X157084698Y-106388070D01*
X157064417Y-106593996D01*
X156635583Y-106593996D01*
X156615301Y-106388070D01*
X156615300Y-106388065D01*
X156575327Y-106256292D01*
X156555232Y-106190046D01*
X156457685Y-106007550D01*
X156326410Y-105847590D01*
X156237108Y-105774302D01*
X156166452Y-105716316D01*
X155983954Y-105618768D01*
X155785934Y-105558699D01*
X155785929Y-105558698D01*
X155580003Y-105538417D01*
X155579997Y-105538417D01*
X155374070Y-105558698D01*
X155374065Y-105558699D01*
X155176045Y-105618768D01*
X154993547Y-105716316D01*
X154833595Y-105847585D01*
X154833585Y-105847595D01*
X154702316Y-106007547D01*
X154604768Y-106190045D01*
X154544699Y-106388065D01*
X154544698Y-106388070D01*
X154524417Y-106593996D01*
X154095583Y-106593996D01*
X154075301Y-106388070D01*
X154075300Y-106388065D01*
X154035327Y-106256292D01*
X154015232Y-106190046D01*
X153917685Y-106007550D01*
X153786410Y-105847590D01*
X153697108Y-105774302D01*
X153626452Y-105716316D01*
X153443954Y-105618768D01*
X153245934Y-105558699D01*
X153245929Y-105558698D01*
X153040003Y-105538417D01*
X153039997Y-105538417D01*
X152834070Y-105558698D01*
X152834065Y-105558699D01*
X152636045Y-105618768D01*
X152453547Y-105716316D01*
X152293595Y-105847585D01*
X152293585Y-105847595D01*
X152162316Y-106007547D01*
X152064768Y-106190045D01*
X152004699Y-106388065D01*
X152004698Y-106388070D01*
X151984417Y-106593996D01*
X151555583Y-106593996D01*
X151535301Y-106388070D01*
X151535300Y-106388065D01*
X151495327Y-106256292D01*
X151475232Y-106190046D01*
X151377685Y-106007550D01*
X151246410Y-105847590D01*
X151157108Y-105774302D01*
X151086452Y-105716316D01*
X150903954Y-105618768D01*
X150705934Y-105558699D01*
X150705929Y-105558698D01*
X150500003Y-105538417D01*
X150499997Y-105538417D01*
X150294070Y-105558698D01*
X150294065Y-105558699D01*
X150096045Y-105618768D01*
X149913547Y-105716316D01*
X149753595Y-105847585D01*
X149753585Y-105847595D01*
X149622316Y-106007547D01*
X149524768Y-106190045D01*
X149464699Y-106388065D01*
X149464698Y-106388070D01*
X149444417Y-106593996D01*
X149015583Y-106593996D01*
X148995301Y-106388070D01*
X148995300Y-106388065D01*
X148955327Y-106256292D01*
X148935232Y-106190046D01*
X148837685Y-106007550D01*
X148706410Y-105847590D01*
X148617108Y-105774302D01*
X148546452Y-105716316D01*
X148363954Y-105618768D01*
X148165934Y-105558699D01*
X148165929Y-105558698D01*
X147960003Y-105538417D01*
X147959997Y-105538417D01*
X147754070Y-105558698D01*
X147754065Y-105558699D01*
X147556045Y-105618768D01*
X147373547Y-105716316D01*
X147213595Y-105847585D01*
X147213585Y-105847595D01*
X147082316Y-106007547D01*
X146984768Y-106190045D01*
X146924699Y-106388065D01*
X146924698Y-106388070D01*
X146904417Y-106593996D01*
X146475583Y-106593996D01*
X146455301Y-106388070D01*
X146455300Y-106388065D01*
X146415327Y-106256292D01*
X146395232Y-106190046D01*
X146297685Y-106007550D01*
X146166410Y-105847590D01*
X146077108Y-105774302D01*
X146006452Y-105716316D01*
X145823954Y-105618768D01*
X145625934Y-105558699D01*
X145625929Y-105558698D01*
X145420003Y-105538417D01*
X145419997Y-105538417D01*
X145214070Y-105558698D01*
X145214065Y-105558699D01*
X145016045Y-105618768D01*
X144833547Y-105716316D01*
X144673595Y-105847585D01*
X144673585Y-105847595D01*
X144542316Y-106007547D01*
X144444768Y-106190045D01*
X144384699Y-106388065D01*
X144384698Y-106388070D01*
X144364417Y-106593996D01*
X143935583Y-106593996D01*
X143915301Y-106388070D01*
X143915300Y-106388065D01*
X143875327Y-106256292D01*
X143855232Y-106190046D01*
X143757685Y-106007550D01*
X143626410Y-105847590D01*
X143537108Y-105774302D01*
X143466452Y-105716316D01*
X143283954Y-105618768D01*
X143085934Y-105558699D01*
X143085929Y-105558698D01*
X142880003Y-105538417D01*
X142879997Y-105538417D01*
X142674070Y-105558698D01*
X142674065Y-105558699D01*
X142476045Y-105618768D01*
X142293547Y-105716316D01*
X142133595Y-105847585D01*
X142133585Y-105847595D01*
X142002316Y-106007547D01*
X141904768Y-106190045D01*
X141844699Y-106388065D01*
X141844698Y-106388070D01*
X141824417Y-106593996D01*
X140890000Y-106593996D01*
X140890000Y-106521591D01*
X140852518Y-106381708D01*
X140827861Y-106339000D01*
X141339999Y-106339000D01*
X141340000Y-106338999D01*
X141340000Y-105774302D01*
X141339999Y-105774299D01*
X141328396Y-105715963D01*
X141284193Y-105649810D01*
X141284189Y-105649806D01*
X141218036Y-105605603D01*
X141159700Y-105594000D01*
X140595001Y-105594000D01*
X140595000Y-105594001D01*
X140595000Y-106106139D01*
X140552292Y-106081482D01*
X140412409Y-106044000D01*
X140267591Y-106044000D01*
X140127708Y-106081482D01*
X140085000Y-106106139D01*
X140085000Y-105594001D01*
X140084999Y-105594000D01*
X139520299Y-105594000D01*
X139461963Y-105605603D01*
X139395810Y-105649806D01*
X139395806Y-105649810D01*
X139362815Y-105699185D01*
X139314765Y-105737064D01*
X139253627Y-105739466D01*
X139202753Y-105705473D01*
X139181576Y-105648069D01*
X139181500Y-105644183D01*
X139181500Y-98797121D01*
X150649500Y-98797121D01*
X150649500Y-99150878D01*
X150684174Y-99502936D01*
X150753191Y-99849907D01*
X150855878Y-100188426D01*
X150908712Y-100315977D01*
X150991261Y-100515269D01*
X151158024Y-100827259D01*
X151158027Y-100827264D01*
X151158029Y-100827267D01*
X151186146Y-100869347D01*
X151354564Y-101121402D01*
X151578988Y-101394864D01*
X151829136Y-101645012D01*
X152102598Y-101869436D01*
X152396741Y-102065976D01*
X152708731Y-102232739D01*
X153035565Y-102368118D01*
X153035567Y-102368118D01*
X153035573Y-102368121D01*
X153328170Y-102456878D01*
X153374095Y-102470809D01*
X153721060Y-102539825D01*
X154073119Y-102574500D01*
X154073122Y-102574500D01*
X154426878Y-102574500D01*
X154426881Y-102574500D01*
X154778940Y-102539825D01*
X155125905Y-102470809D01*
X155345052Y-102404332D01*
X155464426Y-102368121D01*
X155464428Y-102368119D01*
X155464435Y-102368118D01*
X155791269Y-102232739D01*
X156103259Y-102065976D01*
X156397402Y-101869436D01*
X156447252Y-101828525D01*
X251826065Y-101828525D01*
X251826065Y-101828538D01*
X251845785Y-102154565D01*
X251845788Y-102154590D01*
X251904664Y-102475862D01*
X251904664Y-102475863D01*
X252001842Y-102787716D01*
X252135896Y-103085571D01*
X252135907Y-103085592D01*
X252304876Y-103365103D01*
X252449371Y-103549535D01*
X253305364Y-102693541D01*
X253386864Y-102805716D01*
X253553816Y-102972668D01*
X253665988Y-103054166D01*
X252809995Y-103910159D01*
X252994428Y-104054655D01*
X253273939Y-104223624D01*
X253273960Y-104223635D01*
X253571815Y-104357689D01*
X253883669Y-104454867D01*
X254204941Y-104513743D01*
X254204966Y-104513746D01*
X254530994Y-104533467D01*
X254531006Y-104533467D01*
X254857033Y-104513746D01*
X254857058Y-104513743D01*
X255178330Y-104454867D01*
X255178331Y-104454867D01*
X255490184Y-104357689D01*
X255788039Y-104223635D01*
X255788060Y-104223624D01*
X256067565Y-104054658D01*
X256067576Y-104054651D01*
X256252003Y-103910159D01*
X255396010Y-103054166D01*
X255508184Y-102972668D01*
X255675136Y-102805716D01*
X255756634Y-102693542D01*
X256612627Y-103549535D01*
X256757119Y-103365108D01*
X256757126Y-103365097D01*
X256926092Y-103085592D01*
X256926103Y-103085571D01*
X257060157Y-102787716D01*
X257157335Y-102475863D01*
X257157335Y-102475862D01*
X257216211Y-102154590D01*
X257216214Y-102154565D01*
X257235935Y-101828538D01*
X257235935Y-101828525D01*
X257216214Y-101502498D01*
X257216211Y-101502473D01*
X257157335Y-101181201D01*
X257157335Y-101181200D01*
X257060157Y-100869347D01*
X256926103Y-100571492D01*
X256926092Y-100571471D01*
X256757123Y-100291960D01*
X256612627Y-100107527D01*
X255756634Y-100963520D01*
X255675136Y-100851348D01*
X255508184Y-100684396D01*
X255396009Y-100602896D01*
X256252003Y-99746903D01*
X256067571Y-99602408D01*
X255788060Y-99433439D01*
X255788039Y-99433428D01*
X255490184Y-99299374D01*
X255178330Y-99202196D01*
X254857058Y-99143320D01*
X254857033Y-99143317D01*
X254531006Y-99123597D01*
X254530994Y-99123597D01*
X254204966Y-99143317D01*
X254204941Y-99143320D01*
X253883669Y-99202196D01*
X253883668Y-99202196D01*
X253571815Y-99299374D01*
X253273960Y-99433428D01*
X253273939Y-99433439D01*
X252994435Y-99602405D01*
X252994416Y-99602418D01*
X252809995Y-99746902D01*
X253665989Y-100602896D01*
X253553816Y-100684396D01*
X253386864Y-100851348D01*
X253305364Y-100963521D01*
X252449370Y-100107527D01*
X252304886Y-100291948D01*
X252304873Y-100291967D01*
X252135907Y-100571471D01*
X252135896Y-100571492D01*
X252001842Y-100869347D01*
X251904664Y-101181200D01*
X251904664Y-101181201D01*
X251845788Y-101502473D01*
X251845785Y-101502498D01*
X251826065Y-101828525D01*
X156447252Y-101828525D01*
X156670864Y-101645012D01*
X156921012Y-101394864D01*
X157145436Y-101121402D01*
X157341976Y-100827259D01*
X157508739Y-100515269D01*
X157644118Y-100188435D01*
X157746809Y-99849905D01*
X157815825Y-99502940D01*
X157826305Y-99396532D01*
X218949500Y-99396532D01*
X218949500Y-99603467D01*
X218989869Y-99806418D01*
X219069058Y-99997597D01*
X219184020Y-100169651D01*
X219184023Y-100169655D01*
X219330345Y-100315977D01*
X219502402Y-100430941D01*
X219693580Y-100510130D01*
X219896535Y-100550500D01*
X219896536Y-100550500D01*
X220103464Y-100550500D01*
X220103465Y-100550500D01*
X220306420Y-100510130D01*
X220497598Y-100430941D01*
X220669655Y-100315977D01*
X220815977Y-100169655D01*
X220930941Y-99997598D01*
X221010130Y-99806420D01*
X221050500Y-99603465D01*
X221050500Y-99396535D01*
X221010130Y-99193580D01*
X220952863Y-99055326D01*
X247749500Y-99055326D01*
X247749500Y-101104671D01*
X247749501Y-101104683D01*
X247764033Y-101177735D01*
X247764035Y-101177741D01*
X247819397Y-101260598D01*
X247819399Y-101260600D01*
X247902260Y-101315965D01*
X247957808Y-101327014D01*
X247975315Y-101330497D01*
X247975320Y-101330497D01*
X247975326Y-101330499D01*
X247975327Y-101330499D01*
X250024673Y-101330499D01*
X250024674Y-101330499D01*
X250097740Y-101315965D01*
X250180601Y-101260600D01*
X250235966Y-101177739D01*
X250250500Y-101104673D01*
X250250500Y-99055325D01*
X250235966Y-98982259D01*
X250180601Y-98899398D01*
X250180599Y-98899396D01*
X250097742Y-98844034D01*
X250097740Y-98844033D01*
X250097737Y-98844032D01*
X250097736Y-98844032D01*
X250024684Y-98829500D01*
X250024674Y-98829499D01*
X247975326Y-98829499D01*
X247975325Y-98829499D01*
X247975315Y-98829500D01*
X247902263Y-98844032D01*
X247902257Y-98844034D01*
X247819400Y-98899396D01*
X247819397Y-98899399D01*
X247764035Y-98982256D01*
X247764033Y-98982262D01*
X247749501Y-99055314D01*
X247749500Y-99055326D01*
X220952863Y-99055326D01*
X220930941Y-99002402D01*
X220815977Y-98830345D01*
X220669655Y-98684023D01*
X220497598Y-98569059D01*
X220497599Y-98569059D01*
X220497597Y-98569058D01*
X220306418Y-98489869D01*
X220103467Y-98449500D01*
X220103465Y-98449500D01*
X219896535Y-98449500D01*
X219896532Y-98449500D01*
X219693581Y-98489869D01*
X219502402Y-98569058D01*
X219330348Y-98684020D01*
X219184020Y-98830348D01*
X219069058Y-99002402D01*
X218989869Y-99193581D01*
X218949500Y-99396532D01*
X157826305Y-99396532D01*
X157850500Y-99150881D01*
X157850500Y-98797119D01*
X157815825Y-98445060D01*
X157746809Y-98098095D01*
X157732878Y-98052170D01*
X157644121Y-97759573D01*
X157640363Y-97750499D01*
X157508739Y-97432731D01*
X157341976Y-97120741D01*
X157145436Y-96826598D01*
X156921012Y-96553136D01*
X156670864Y-96302988D01*
X156397402Y-96078564D01*
X156253289Y-95982271D01*
X156103267Y-95882029D01*
X156103264Y-95882027D01*
X156103259Y-95882024D01*
X155791269Y-95715261D01*
X155791263Y-95715258D01*
X155791260Y-95715257D01*
X155464426Y-95579878D01*
X155125907Y-95477191D01*
X154823009Y-95416941D01*
X154778940Y-95408175D01*
X154778938Y-95408174D01*
X154521576Y-95382826D01*
X154426881Y-95373500D01*
X154073119Y-95373500D01*
X153969097Y-95383745D01*
X153721063Y-95408174D01*
X153374092Y-95477191D01*
X153035573Y-95579878D01*
X152708739Y-95715257D01*
X152708721Y-95715266D01*
X152396732Y-95882029D01*
X152102596Y-96078565D01*
X151829141Y-96302983D01*
X151578983Y-96553141D01*
X151354565Y-96826596D01*
X151158029Y-97120732D01*
X150991266Y-97432721D01*
X150991257Y-97432739D01*
X150855878Y-97759573D01*
X150753191Y-98098092D01*
X150684174Y-98445063D01*
X150649500Y-98797121D01*
X139181500Y-98797121D01*
X139181500Y-94896532D01*
X218949500Y-94896532D01*
X218949500Y-95103467D01*
X218989869Y-95306418D01*
X219069058Y-95497597D01*
X219174759Y-95655791D01*
X219184023Y-95669655D01*
X219330345Y-95815977D01*
X219502402Y-95930941D01*
X219693580Y-96010130D01*
X219896535Y-96050500D01*
X219896536Y-96050500D01*
X220103464Y-96050500D01*
X220103465Y-96050500D01*
X220306420Y-96010130D01*
X220497598Y-95930941D01*
X220669655Y-95815977D01*
X220815977Y-95669655D01*
X220930941Y-95497598D01*
X221010130Y-95306420D01*
X221050500Y-95103465D01*
X221050500Y-94896535D01*
X221040355Y-94845533D01*
X246249500Y-94845533D01*
X246249500Y-95154466D01*
X246284088Y-95461450D01*
X246352832Y-95762637D01*
X246454863Y-96054225D01*
X246588905Y-96332566D01*
X246727499Y-96553136D01*
X246753265Y-96594143D01*
X246945880Y-96835674D01*
X247164326Y-97054120D01*
X247405857Y-97246735D01*
X247667435Y-97411095D01*
X247945771Y-97545135D01*
X248237364Y-97647168D01*
X248538548Y-97715911D01*
X248845535Y-97750500D01*
X248845536Y-97750500D01*
X253513996Y-97750500D01*
X253513997Y-97750500D01*
X253820984Y-97715911D01*
X254122168Y-97647168D01*
X254338177Y-97571583D01*
X254413762Y-97545135D01*
X254692097Y-97411096D01*
X254953675Y-97246735D01*
X255195206Y-97054120D01*
X256585120Y-95664206D01*
X256593542Y-95655784D01*
X256688710Y-95534309D01*
X256688952Y-95534003D01*
X256777735Y-95422675D01*
X256781338Y-95416941D01*
X256787237Y-95408550D01*
X256788648Y-95406747D01*
X256798754Y-95393850D01*
X256872142Y-95272448D01*
X256872904Y-95271213D01*
X256942096Y-95161097D01*
X256950386Y-95143880D01*
X256954860Y-95135618D01*
X256970898Y-95109089D01*
X257024017Y-94991060D01*
X257025094Y-94988747D01*
X257076135Y-94882762D01*
X257086513Y-94853100D01*
X257089681Y-94845162D01*
X257107463Y-94805655D01*
X257142346Y-94693705D01*
X257143377Y-94690589D01*
X257178167Y-94591168D01*
X257187902Y-94548513D01*
X257189891Y-94541128D01*
X257206456Y-94487973D01*
X257225364Y-94384788D01*
X257226216Y-94380649D01*
X257246911Y-94289984D01*
X257253190Y-94234244D01*
X257254182Y-94227536D01*
X257266436Y-94160674D01*
X257272024Y-94068286D01*
X257272466Y-94063183D01*
X257279753Y-93998499D01*
X257281500Y-93982997D01*
X257281500Y-93914622D01*
X257281681Y-93908644D01*
X257286527Y-93828537D01*
X257286527Y-93828526D01*
X257281681Y-93748419D01*
X257281500Y-93742441D01*
X257281500Y-93674067D01*
X257281499Y-93674050D01*
X257272466Y-93593882D01*
X257272024Y-93588774D01*
X257266436Y-93496393D01*
X257266436Y-93496390D01*
X257254182Y-93429526D01*
X257253190Y-93422813D01*
X257246911Y-93367080D01*
X257226215Y-93276411D01*
X257225356Y-93272227D01*
X257206457Y-93169095D01*
X257204971Y-93164326D01*
X257189895Y-93115947D01*
X257187900Y-93108541D01*
X257178167Y-93065897D01*
X257178167Y-93065896D01*
X257143383Y-92966491D01*
X257142341Y-92963339D01*
X257107463Y-92851409D01*
X257107458Y-92851399D01*
X257107454Y-92851387D01*
X257089680Y-92811896D01*
X257086511Y-92803958D01*
X257076136Y-92774305D01*
X257076135Y-92774302D01*
X257025073Y-92668272D01*
X257024018Y-92666005D01*
X256989318Y-92588905D01*
X256970898Y-92547975D01*
X256954859Y-92521443D01*
X256950386Y-92513182D01*
X256942102Y-92495979D01*
X256942100Y-92495976D01*
X256942096Y-92495967D01*
X256872929Y-92385890D01*
X256872145Y-92384618D01*
X256798754Y-92263214D01*
X256798745Y-92263202D01*
X256787230Y-92248503D01*
X256781337Y-92240121D01*
X256777737Y-92234392D01*
X256775578Y-92231685D01*
X256689056Y-92123189D01*
X256688529Y-92122522D01*
X256593542Y-92001280D01*
X256358252Y-91765990D01*
X256358247Y-91765986D01*
X256358245Y-91765984D01*
X256236951Y-91670956D01*
X256236280Y-91670426D01*
X256125142Y-91581796D01*
X256119401Y-91578189D01*
X256111020Y-91572296D01*
X256096314Y-91560775D01*
X256096315Y-91560775D01*
X255975059Y-91487474D01*
X255973604Y-91486578D01*
X255903988Y-91442836D01*
X255863565Y-91417436D01*
X255846348Y-91409144D01*
X255838090Y-91404673D01*
X255811567Y-91388640D01*
X255811566Y-91388639D01*
X255811557Y-91388634D01*
X255693499Y-91335500D01*
X255691225Y-91334441D01*
X255585230Y-91283397D01*
X255585226Y-91283395D01*
X255585225Y-91283395D01*
X255555561Y-91273015D01*
X255547638Y-91269853D01*
X255508123Y-91252069D01*
X255508121Y-91252068D01*
X255396263Y-91217212D01*
X255393019Y-91216140D01*
X255293629Y-91181362D01*
X255250987Y-91171629D01*
X255243569Y-91169630D01*
X255202983Y-91156984D01*
X255190441Y-91153076D01*
X255190439Y-91153075D01*
X255190437Y-91153075D01*
X255087293Y-91134172D01*
X255083110Y-91133312D01*
X254992458Y-91112622D01*
X254992449Y-91112620D01*
X254936742Y-91106343D01*
X254929983Y-91105344D01*
X254863143Y-91093095D01*
X254863144Y-91093095D01*
X254770753Y-91087506D01*
X254765648Y-91087065D01*
X254685468Y-91078032D01*
X254685465Y-91078032D01*
X254617091Y-91078032D01*
X254611114Y-91077851D01*
X254601015Y-91077240D01*
X254531005Y-91073005D01*
X254530995Y-91073005D01*
X254460984Y-91077240D01*
X254450885Y-91077851D01*
X254444909Y-91078032D01*
X254376531Y-91078032D01*
X254296351Y-91087065D01*
X254291246Y-91087506D01*
X254198862Y-91093095D01*
X254132014Y-91105345D01*
X254125257Y-91106343D01*
X254069544Y-91112621D01*
X253978887Y-91133312D01*
X253974706Y-91134172D01*
X253871555Y-91153076D01*
X253818421Y-91169633D01*
X253811002Y-91171632D01*
X253768361Y-91181365D01*
X253668978Y-91216140D01*
X253665735Y-91217212D01*
X253553871Y-91252070D01*
X253514367Y-91269850D01*
X253506435Y-91273016D01*
X253476772Y-91283395D01*
X253370812Y-91334423D01*
X253368490Y-91335505D01*
X253250440Y-91388635D01*
X253223914Y-91404670D01*
X253215663Y-91409137D01*
X253198445Y-91417430D01*
X253198429Y-91417439D01*
X253088418Y-91486562D01*
X253086965Y-91487458D01*
X252965687Y-91560774D01*
X252965671Y-91560785D01*
X252950970Y-91572302D01*
X252942599Y-91578188D01*
X252936858Y-91581795D01*
X252936855Y-91581798D01*
X252825701Y-91670438D01*
X252825033Y-91670966D01*
X252703756Y-91765982D01*
X252703740Y-91765996D01*
X252695325Y-91774411D01*
X252695326Y-91774412D01*
X252249234Y-92220504D01*
X252194717Y-92248281D01*
X252179230Y-92249500D01*
X248845533Y-92249500D01*
X248538549Y-92284088D01*
X248237362Y-92352832D01*
X247945774Y-92454863D01*
X247667433Y-92588905D01*
X247405856Y-92753265D01*
X247164327Y-92945879D01*
X246945879Y-93164327D01*
X246753265Y-93405856D01*
X246588905Y-93667433D01*
X246454863Y-93945774D01*
X246352832Y-94237362D01*
X246284088Y-94538549D01*
X246249500Y-94845533D01*
X221040355Y-94845533D01*
X221010130Y-94693580D01*
X220930941Y-94502402D01*
X220815977Y-94330345D01*
X220669655Y-94184023D01*
X220634709Y-94160673D01*
X220497597Y-94069058D01*
X220306418Y-93989869D01*
X220103467Y-93949500D01*
X220103465Y-93949500D01*
X219896535Y-93949500D01*
X219896532Y-93949500D01*
X219693581Y-93989869D01*
X219502402Y-94069058D01*
X219330348Y-94184020D01*
X219184020Y-94330348D01*
X219069058Y-94502402D01*
X218989869Y-94693581D01*
X218949500Y-94896532D01*
X139181500Y-94896532D01*
X139181500Y-91810313D01*
X139200407Y-91752122D01*
X139249907Y-91716158D01*
X139311093Y-91716158D01*
X139360593Y-91752122D01*
X139367805Y-91763637D01*
X139392755Y-91810313D01*
X139462316Y-91940452D01*
X139593585Y-92100404D01*
X139593590Y-92100410D01*
X139593595Y-92100414D01*
X139753547Y-92231683D01*
X139753548Y-92231683D01*
X139753550Y-92231685D01*
X139936046Y-92329232D01*
X140073997Y-92371078D01*
X140134065Y-92389300D01*
X140134070Y-92389301D01*
X140339997Y-92409583D01*
X140340000Y-92409583D01*
X140340003Y-92409583D01*
X140545929Y-92389301D01*
X140545934Y-92389300D01*
X140743954Y-92329232D01*
X140926450Y-92231685D01*
X141086410Y-92100410D01*
X141217685Y-91940450D01*
X141315232Y-91757954D01*
X141375300Y-91559934D01*
X141375301Y-91559929D01*
X141395583Y-91354003D01*
X141395583Y-91353996D01*
X141375301Y-91148070D01*
X141375300Y-91148065D01*
X141326369Y-90986761D01*
X141315232Y-90950046D01*
X141217685Y-90767550D01*
X141086410Y-90607590D01*
X141086404Y-90607585D01*
X140926452Y-90476316D01*
X140743954Y-90378768D01*
X140659787Y-90353236D01*
X140609591Y-90318252D01*
X140589545Y-90260444D01*
X140607306Y-90201893D01*
X140656090Y-90164964D01*
X140688526Y-90159500D01*
X142531474Y-90159500D01*
X142589665Y-90178407D01*
G37*
%TD.AperFunction*%
%TD*%
%TA.AperFunction,Conductor*%
%TO.N,pwm_6*%
G36*
X210263817Y-110602590D02*
G01*
X211040457Y-110748210D01*
X211047956Y-110753103D01*
X211050000Y-110759710D01*
X211050000Y-111240289D01*
X211046573Y-111248562D01*
X211040456Y-111251789D01*
X210263820Y-111397408D01*
X210255057Y-111395564D01*
X210250164Y-111388064D01*
X210249964Y-111385946D01*
X210249000Y-111000000D01*
X210249964Y-110614059D01*
X210253412Y-110605797D01*
X210261693Y-110602391D01*
X210263817Y-110602590D01*
G37*
%TD.AperFunction*%
%TD*%
%TA.AperFunction,Conductor*%
%TO.N,pwm_6*%
G36*
X223521595Y-116361409D02*
G01*
X224171304Y-116809204D01*
X224176171Y-116816721D01*
X224174298Y-116825478D01*
X224172958Y-116827090D01*
X223900749Y-117100665D01*
X223900707Y-117100707D01*
X223627161Y-117372888D01*
X223618880Y-117376294D01*
X223610615Y-117372846D01*
X223609231Y-117371168D01*
X223232851Y-116816721D01*
X223165453Y-116717436D01*
X223163641Y-116708667D01*
X223166858Y-116702594D01*
X223506683Y-116362769D01*
X223514955Y-116359343D01*
X223521595Y-116361409D01*
G37*
%TD.AperFunction*%
%TD*%
%TA.AperFunction,Conductor*%
%TO.N,pwm_7*%
G36*
X238434484Y-116353070D02*
G01*
X239071652Y-116809147D01*
X239076385Y-116816748D01*
X239074356Y-116825470D01*
X239073136Y-116826912D01*
X238802369Y-117099035D01*
X238798527Y-117101603D01*
X238439437Y-117249373D01*
X238430483Y-117249352D01*
X238425164Y-117244912D01*
X238078007Y-116708791D01*
X238076387Y-116699984D01*
X238079553Y-116694161D01*
X238419403Y-116354311D01*
X238427675Y-116350885D01*
X238434484Y-116353070D01*
G37*
%TD.AperFunction*%
%TD*%
%TA.AperFunction,Conductor*%
%TO.N,pwm_7*%
G36*
X211013817Y-109102590D02*
G01*
X211790457Y-109248210D01*
X211797956Y-109253103D01*
X211800000Y-109259710D01*
X211800000Y-109740289D01*
X211796573Y-109748562D01*
X211790456Y-109751789D01*
X211013820Y-109897408D01*
X211005057Y-109895564D01*
X211000164Y-109888064D01*
X210999964Y-109885946D01*
X210999000Y-109500000D01*
X210999964Y-109114059D01*
X211003412Y-109105797D01*
X211011693Y-109102391D01*
X211013817Y-109102590D01*
G37*
%TD.AperFunction*%
%TD*%
%TA.AperFunction,Conductor*%
%TO.N,pwm_8*%
G36*
X211763817Y-107602590D02*
G01*
X212540457Y-107748210D01*
X212547956Y-107753103D01*
X212550000Y-107759710D01*
X212550000Y-108240289D01*
X212546573Y-108248562D01*
X212540456Y-108251789D01*
X211763820Y-108397408D01*
X211755057Y-108395564D01*
X211750164Y-108388064D01*
X211749964Y-108385946D01*
X211749000Y-108000000D01*
X211749964Y-107614059D01*
X211753412Y-107605797D01*
X211761693Y-107602391D01*
X211763817Y-107602590D01*
G37*
%TD.AperFunction*%
%TD*%
%TA.AperFunction,Conductor*%
%TO.N,pwm_8*%
G36*
X253375104Y-116372021D02*
G01*
X254027237Y-116818216D01*
X254032130Y-116825716D01*
X254030286Y-116834479D01*
X254028924Y-116836124D01*
X253756749Y-117109665D01*
X253756707Y-117109707D01*
X253483124Y-117381924D01*
X253474843Y-117385330D01*
X253466578Y-117381882D01*
X253465216Y-117380237D01*
X253019021Y-116728104D01*
X253017177Y-116719341D01*
X253020402Y-116713226D01*
X253360225Y-116373403D01*
X253368497Y-116369977D01*
X253375104Y-116372021D01*
G37*
%TD.AperFunction*%
%TD*%
M02*
