%TF.GenerationSoftware,KiCad,Pcbnew,8.0.4*%
%TF.CreationDate,2025-03-12T23:32:50+01:00*%
%TF.ProjectId,Transistor Board V2,5472616e-7369-4737-946f-7220426f6172,rev?*%
%TF.SameCoordinates,Original*%
%TF.FileFunction,Legend,Bot*%
%TF.FilePolarity,Positive*%
%FSLAX46Y46*%
G04 Gerber Fmt 4.6, Leading zero omitted, Abs format (unit mm)*
G04 Created by KiCad (PCBNEW 8.0.4) date 2025-03-12 23:32:50*
%MOMM*%
%LPD*%
G01*
G04 APERTURE LIST*
%ADD10C,3.200000*%
%ADD11R,2.000000X2.000000*%
%ADD12O,2.000000X2.000000*%
%ADD13C,5.000000*%
%ADD14C,1.600000*%
%ADD15R,1.600000X1.600000*%
G04 APERTURE END LIST*
%LPC*%
D10*
%TO.C,REF\u002A\u002A*%
X154250000Y-98974000D03*
%TD*%
%TO.C,REF\u002A\u002A*%
X154250000Y-122500000D03*
%TD*%
%TO.C,REF\u002A\u002A*%
X243750000Y-122500000D03*
%TD*%
D11*
%TO.C,D2*%
X249000000Y-100079999D03*
D12*
X249000000Y-95000000D03*
%TD*%
D13*
%TO.C,J14*%
X254531000Y-93828532D03*
X254531000Y-101828532D03*
%TD*%
D14*
%TO.C,J9*%
X220000000Y-95000000D03*
X220000000Y-99500000D03*
%TD*%
%TO.C,J8*%
X251206000Y-130459000D03*
X251206000Y-134959001D03*
%TD*%
%TO.C,J7*%
X236284568Y-130459000D03*
X236284568Y-134959001D03*
%TD*%
%TO.C,J6*%
X221363140Y-130459000D03*
X221363140Y-134959001D03*
%TD*%
%TO.C,J5*%
X206441712Y-130459000D03*
X206441712Y-134959001D03*
%TD*%
%TO.C,J4*%
X191520284Y-130459000D03*
X191520284Y-134959001D03*
%TD*%
%TO.C,J3*%
X176598856Y-130459000D03*
X176598856Y-134959001D03*
%TD*%
%TO.C,J1*%
X161677428Y-130459000D03*
X161677428Y-134959001D03*
%TD*%
%TO.C,U1*%
X140340000Y-91354000D03*
X142880000Y-91354000D03*
X145420000Y-91354000D03*
X147960000Y-91354000D03*
X150500000Y-91354000D03*
X153040000Y-91354000D03*
X155580000Y-91354000D03*
X158120000Y-91354000D03*
X160660000Y-91354000D03*
X163200000Y-91354000D03*
X165740000Y-91354000D03*
X168280000Y-91354000D03*
X170820000Y-91354000D03*
X173360000Y-91354000D03*
X175900000Y-91354000D03*
X178440000Y-91354000D03*
X180980000Y-91354000D03*
X183520000Y-91354000D03*
X186060000Y-91354000D03*
X188600000Y-91354000D03*
X191140000Y-91354000D03*
X193680000Y-91354000D03*
X196220000Y-91354000D03*
X198760000Y-91354000D03*
X198760000Y-106594000D03*
X196220000Y-106594000D03*
X193680000Y-106594000D03*
X191140000Y-106594000D03*
X188600000Y-106594000D03*
X186060000Y-106594000D03*
X183520000Y-106594000D03*
X180980000Y-106594000D03*
X178440000Y-106594000D03*
X175900000Y-106594000D03*
X173360000Y-106594000D03*
X170820000Y-106594000D03*
X168280000Y-106594000D03*
X165740000Y-106594000D03*
X163200000Y-106594000D03*
X160660000Y-106594000D03*
X158120000Y-106594000D03*
X155580000Y-106594000D03*
X153040000Y-106594000D03*
X150500000Y-106594000D03*
X147960000Y-106594000D03*
X145420000Y-106594000D03*
X142880000Y-106594000D03*
D15*
X140340000Y-106594000D03*
%TD*%
D14*
%TO.C,J15*%
X146756000Y-130459000D03*
X146756000Y-134959001D03*
%TD*%
%LPD*%
M02*
